999
dxfrw 0.5.11
0
SECTION
2
HEADER
9
$ACADVER
1
AC1021
9
$HANDSEED
5
20000
9
$DWGCODEPAGE
3
ANSI_1252
9
$INSBASE
10
0
20
0
30
0
9
$EXTMIN
10
0
20
0
30
0
9
$EXTMAX
10
350
20
570
30
0
9
$LIMMIN
10
0
20
0
9
$LIMMAX
10
420
20
297
9
$ORTHOMODE
70
0
9
$LTSCALE
40
1
9
$TEXTSTYLE
7
STANDARD
9
$CLAYER
8
0
9
$DIMASZ
40
2.5
9
$DIMLFAC
40
1
9
$DIMSCALE
40
1
9
$DIMEXO
40
0.625
9
$DIMEXE
40
1.25
9
$DIMTXT
40
2.5
9
$DIMTSZ
40
0
9
$DIMAUNIT
70
0
9
$DIMADEC
70
0
9
$DIMLUNIT
70
2
9
$DIMSTYLE
2
STANDARD
9
$DIMGAP
40
0.625
9
$DIMTIH
70
0
9
$LUNITS
70
2
9
$LUPREC
70
4
9
$AUNITS
70
0
9
$AUPREC
70
2
9
$SPLINESEGS
70
8
9
$GRIDMODE
70
1
9
$SNAPSTYLE
70
0
9
$PINSBASE
10
0
20
0
30
0
9
$PLIMMIN
10
0
20
0
9
$PLIMMAX
10
210
20
297
9
$INSUNITS
70
4
9
$PSVPSCALE
40
1
0
ENDSEC
0
SECTION
2
CLASSES
0
ENDSEC
0
SECTION
2
TABLES
0
TABLE
2
VPORT
5
8
330
0
100
AcDbSymbolTable
70
1
0
VPORT
5
31
330
2
100
AcDbSymbolTableRecord
100
AcDbViewportTableRecord
2
*ACTIVE
70
0
10
0
20
0
11
1
21
1
12
-110.637783828
22
18.0321249885
13
0
23
0
14
10
24
10
15
10
25
10
16
0
26
0
36
1
17
0
27
0
37
0
40
31.7854406578
41
2.07692307692
42
50
43
0
44
0
50
0
51
0
71
0
72
100
73
1
74
3
75
0
76
1
77
0
78
0
281
0
65
1
110
0
120
0
130
0
111
1
121
0
131
0
112
0
122
1
132
0
79
0
146
0
348
10020
60
7
61
5
292
1
282
1
141
0
142
0
63
250
421
3358443
0
ENDTAB
0
TABLE
2
LTYPE
5
5
330
0
100
AcDbSymbolTable
70
4
0
LTYPE
5
14
330
5
100
AcDbSymbolTableRecord
100
AcDbLinetypeTableRecord
2
ByBlock
70
0
3

72
65
73
0
40
0
0
LTYPE
5
15
330
5
100
AcDbSymbolTableRecord
100
AcDbLinetypeTableRecord
2
ByLayer
70
0
3

72
65
73
0
40
0
0
LTYPE
5
16
330
5
100
AcDbSymbolTableRecord
100
AcDbLinetypeTableRecord
2
Continuous
70
0
3
Solid line
72
65
73
0
40
0
0
LTYPE
5
32
330
5
100
AcDbSymbolTableRecord
100
AcDbLinetypeTableRecord
2
DOT
70
0
3
Dot . . . . . . . . . . . . . . . . . . . . . .
72
65
73
2
40
6.35
49
0
74
0
49
-6.35
74
0
0
LTYPE
5
33
330
5
100
AcDbSymbolTableRecord
100
AcDbLinetypeTableRecord
2
DOT2
70
0
3
Dot (.5x) .....................................
72
65
73
2
40
3.175
49
0
74
0
49
-3.175
74
0
0
LTYPE
5
34
330
5
100
AcDbSymbolTableRecord
100
AcDbLinetypeTableRecord
2
DOTX2
70
0
3
Dot (2x) .  .  .  .  .  .  .  .  .  .  .  .  .
72
65
73
2
40
12.7
49
0
74
0
49
-12.7
74
0
0
LTYPE
5
35
330
5
100
AcDbSymbolTableRecord
100
AcDbLinetypeTableRecord
2
DASHED
70
0
3
Dot . . . . . . . . . . . . . . . . . . . . . .
72
65
73
2
40
19.05
49
12.7
74
0
49
-6.35
74
0
0
LTYPE
5
36
330
5
100
AcDbSymbolTableRecord
100
AcDbLinetypeTableRecord
2
DASHED2
70
0
3
Dashed (.5x) _ _ _ _ _ _ _ _ _ _ _ _ _ _ _ _ _
72
65
73
2
40
9.525
49
6.35
74
0
49
-3.175
74
0
0
LTYPE
5
37
330
5
100
AcDbSymbolTableRecord
100
AcDbLinetypeTableRecord
2
DASHEDX2
70
0
3
Dashed (2x) ____  ____  ____  ____  ____  ___
72
65
73
2
40
38.1
49
25.4
74
0
49
-12.7
74
0
0
LTYPE
5
38
330
5
100
AcDbSymbolTableRecord
100
AcDbLinetypeTableRecord
2
DASHDOT
70
0
3
Dash dot __ . __ . __ . __ . __ . __ . __ . __
72
65
73
4
40
25.4
49
12.7
74
0
49
-6.35
74
0
49
0
74
0
49
-6.35
74
0
0
LTYPE
5
39
330
5
100
AcDbSymbolTableRecord
100
AcDbLinetypeTableRecord
2
DASHDOT2
70
0
3
Dash dot (.5x) _._._._._._._._._._._._._._._.
72
65
73
4
40
12.7
49
6.35
74
0
49
-3.175
74
0
49
0
74
0
49
-3.175
74
0
0
LTYPE
5
3A
330
5
100
AcDbSymbolTableRecord
100
AcDbLinetypeTableRecord
2
DASHDOTX2
70
0
3
Dash dot (2x) ____  .  ____  .  ____  .  ___
72
65
73
4
40
50.8
49
25.4
74
0
49
-12.7
74
0
49
0
74
0
49
-12.7
74
0
0
LTYPE
5
3B
330
5
100
AcDbSymbolTableRecord
100
AcDbLinetypeTableRecord
2
DIVIDE
70
0
3
Divide ____ . . ____ . . ____ . . ____ . . ____
72
65
73
6
40
31.75
49
12.7
74
0
49
-6.35
74
0
49
0
74
0
49
-6.35
74
0
49
0
74
0
49
-6.35
74
0
0
LTYPE
5
3C
330
5
100
AcDbSymbolTableRecord
100
AcDbLinetypeTableRecord
2
DIVIDE2
70
0
3
Divide (.5x) __..__..__..__..__..__..__..__.._
72
65
73
6
40
15.875
49
6.35
74
0
49
-3.175
74
0
49
0
74
0
49
-3.175
74
0
49
0
74
0
49
-3.175
74
0
0
LTYPE
5
3D
330
5
100
AcDbSymbolTableRecord
100
AcDbLinetypeTableRecord
2
DIVIDEX2
70
0
3
Divide (2x) ________  .  .  ________  .  .  _
72
65
73
6
40
63.5
49
25.4
74
0
49
-12.7
74
0
49
0
74
0
49
-12.7
74
0
49
0
74
0
49
-12.7
74
0
0
LTYPE
5
3E
330
5
100
AcDbSymbolTableRecord
100
AcDbLinetypeTableRecord
2
BORDER
70
0
3
Border __ __ . __ __ . __ __ . __ __ . __ __ .
72
65
73
6
40
44.45
49
12.7
74
0
49
-6.35
74
0
49
12.7
74
0
49
-6.35
74
0
49
0
74
0
49
-6.35
74
0
0
LTYPE
5
3F
330
5
100
AcDbSymbolTableRecord
100
AcDbLinetypeTableRecord
2
BORDER2
70
0
3
Border (.5x) __.__.__.__.__.__.__.__.__.__.__.
72
65
73
6
40
22.225
49
6.35
74
0
49
-3.175
74
0
49
6.35
74
0
49
-3.175
74
0
49
0
74
0
49
-3.175
74
0
0
LTYPE
5
40
330
5
100
AcDbSymbolTableRecord
100
AcDbLinetypeTableRecord
2
BORDERX2
70
0
3
Border (2x) ____  ____  .  ____  ____  .  ___
72
65
73
6
40
88.9
49
25.4
74
0
49
-12.7
74
0
49
25.4
74
0
49
-12.7
74
0
49
0
74
0
49
-12.7
74
0
0
LTYPE
5
41
330
5
100
AcDbSymbolTableRecord
100
AcDbLinetypeTableRecord
2
CENTER
70
0
3
Center ____ _ ____ _ ____ _ ____ _ ____ _ ____
72
65
73
4
40
50.8
49
31.75
74
0
49
-6.35
74
0
49
6.35
74
0
49
-6.35
74
0
0
LTYPE
5
42
330
5
100
AcDbSymbolTableRecord
100
AcDbLinetypeTableRecord
2
CENTER2
70
0
3
Center (.5x) ___ _ ___ _ ___ _ ___ _ ___ _ ___
72
65
73
4
40
28.575
49
19.05
74
0
49
-3.175
74
0
49
3.175
74
0
49
-3.175
74
0
0
LTYPE
5
43
330
5
100
AcDbSymbolTableRecord
100
AcDbLinetypeTableRecord
2
CENTERX2
70
0
3
Center (2x) ________  __  ________  __  _____
72
65
73
4
40
101.6
49
63.5
74
0
49
-12.7
74
0
49
12.7
74
0
49
-12.7
74
0
0
ENDTAB
0
TABLE
2
LAYER
5
2
330
0
100
AcDbSymbolTable
70
1
0
LAYER
5
10
330
2
100
AcDbSymbolTableRecord
100
AcDbLayerTableRecord
2
0
70
0
62
7
6
CONTINUOUS
370
0
390
F
0
ENDTAB
0
TABLE
2
STYLE
5
3
330
0
100
AcDbSymbolTable
70
3
0
STYLE
5
44
330
2
100
AcDbSymbolTableRecord
100
AcDbTextStyleTableRecord
2
Standard
70
0
40
0
41
1
50
0
71
0
42
1
3
txt
4

0
ENDTAB
0
TABLE
2
VIEW
5
6
330
0
100
AcDbSymbolTable
70
0
0
ENDTAB
0
TABLE
2
UCS
5
7
330
0
100
AcDbSymbolTable
70
0
0
ENDTAB
0
TABLE
2
APPID
5
9
330
0
100
AcDbSymbolTable
70
1
0
APPID
5
12
330
9
100
AcDbSymbolTableRecord
100
AcDbRegAppTableRecord
2
ACAD
70
0
0
ENDTAB
0
TABLE
2
DIMSTYLE
5
A
330
0
100
AcDbSymbolTable
70
1
100
AcDbDimStyleTable
71
1
0
DIMSTYLE
105
45
330
A
100
AcDbSymbolTableRecord
100
AcDbDimStyleTableRecord
2
Standard
70
0
40
1
41
2.5
42
0.625
43
0.38
44
1.25
45
0
46
0
47
0
48
0
140
2.5
141
0.09
142
0
143
25.4
144
1
145
0
146
1
147
0.625
148
0
71
0
72
0
73
0
74
1
75
0
76
0
77
0
78
0
79
0
170
0
171
2
172
0
173
0
174
0
175
0
176
0
177
0
178
0
179
0
271
4
272
4
273
2
274
2
275
0
276
0
277
2
278
46
279
0
280
0
281
0
282
0
283
1
284
0
285
0
286
0
288
0
289
3
340
Standard
341

371
-2
372
-2
0
ENDTAB
0
TABLE
2
BLOCK_RECORD
5
1
330
0
100
AcDbSymbolTable
70
2
0
BLOCK_RECORD
5
1F
330
1
100
AcDbSymbolTableRecord
100
AcDbBlockTableRecord
2
*Model_Space
70
0
280
1
281
0
0
BLOCK_RECORD
5
1E
330
1
100
AcDbSymbolTableRecord
100
AcDbBlockTableRecord
2
*Paper_Space
70
0
280
1
281
0
0
BLOCK_RECORD
5
46
330
1
100
AcDbSymbolTableRecord
100
AcDbBlockTableRecord
2
Zeundapp-Schrift-1
70
0
280
1
281
0
0
BLOCK_RECORD
5
49
330
1
100
AcDbSymbolTableRecord
100
AcDbBlockTableRecord
2
Zuendapp-Wappen
70
0
280
1
281
0
0
ENDTAB
0
ENDSEC
0
SECTION
2
BLOCKS
0
BLOCK
5
20
330
1F
100
AcDbEntity
8
0
100
AcDbBlockBegin
2
*Model_Space
70
0
10
0
20
0
30
0
3
*Model_Space
1

0
ENDBLK
5
21
330
1F
100
AcDbEntity
8
0
100
AcDbBlockEnd
0
BLOCK
5
1C
330
1B
100
AcDbEntity
8
0
100
AcDbBlockBegin
2
*Paper_Space
70
0
10
0
20
0
30
0
3
*Paper_Space
1

0
ENDBLK
5
1D
330
1F
100
AcDbEntity
8
0
100
AcDbBlockEnd
0
BLOCK
5
47
330
46
100
AcDbEntity
8
0
100
AcDbBlockBegin
2
Zeundapp-Schrift-1
70
0
10
0
20
0
3
Zeundapp-Schrift-1
1

0
LINE
5
4C
100
AcDbEntity
8
0
6
ByLayer
62
256
370
-1
100
AcDbLine
10
0
20
0
11
28.416
21
0
0
LINE
5
4D
100
AcDbEntity
8
0
6
ByLayer
62
256
370
-1
100
AcDbLine
10
28.416
20
0
11
28.416
21
-5.382137088
0
LINE
5
4E
100
AcDbEntity
8
0
6
ByLayer
62
256
370
-1
100
AcDbLine
10
28.416
20
-5.382137088
11
12.096
21
-13.383291264
0
LINE
5
4F
100
AcDbEntity
8
0
6
ByLayer
62
256
370
-1
100
AcDbLine
10
12.096
20
-13.383291264
11
28.416
21
-13.44
0
LINE
5
50
100
AcDbEntity
8
0
6
ByLayer
62
256
370
-1
100
AcDbLine
10
28.416
20
-13.44
11
28.416
21
-18.816
0
LINE
5
51
100
AcDbEntity
8
0
6
ByLayer
62
256
370
-1
100
AcDbLine
10
0
20
-18.816
11
0
21
-13.389873024
0
LINE
5
52
100
AcDbEntity
8
0
6
ByLayer
62
256
370
-1
100
AcDbLine
10
0
20
-13.389873024
11
16.662792576
21
-5.376
0
LINE
5
53
100
AcDbEntity
8
0
6
ByLayer
62
256
370
-1
100
AcDbLine
10
16.662792576
20
-5.376
11
0
21
-5.376
0
LINE
5
54
100
AcDbEntity
8
0
6
ByLayer
62
256
370
-1
100
AcDbLine
10
0
20
-5.376
11
0
21
0
0
LINE
5
55
100
AcDbEntity
8
0
6
ByLayer
62
256
370
-1
100
AcDbLine
10
0
20
-18.816
11
28.416
21
-18.816
0
LINE
5
56
100
AcDbEntity
8
0
6
ByLayer
62
256
370
-1
100
AcDbLine
10
36.096
20
0
11
36.096
21
-11.8264978251
0
ARC
5
57
100
AcDbEntity
8
0
6
ByLayer
62
256
370
-1
100
AcDbCircle
10
42.7398579598
20
-12.1846653552
40
6.65350528439
100
AcDbArc
50
176.914196177
51
266.914196177
0
LINE
5
58
100
AcDbEntity
8
0
6
ByLayer
62
256
370
-1
100
AcDbLine
10
36.096
20
0
11
43.392
21
0
0
LINE
5
59
100
AcDbEntity
8
0
6
ByLayer
62
256
370
-1
100
AcDbLine
10
43.392
20
-1.5
11
43.3816904297
21
-11.328523315
0
ARC
5
5A
100
AcDbEntity
8
0
6
ByLayer
62
256
370
-1
100
AcDbCircle
10
45.3816904297
20
-11.328523315
40
0
100
AcDbArc
50
180
51
270
0
ARC
5
5B
100
AcDbEntity
8
0
6
ByLayer
62
256
370
-1
100
AcDbCircle
10
45.3816904297
20
-11.328523315
40
2
100
AcDbArc
50
180
51
270
0
LINE
5
5C
100
AcDbEntity
8
0
6
ByLayer
62
256
370
-1
100
AcDbLine
10
43.392
20
-1.5
11
43.392
21
0
0
LINE
5
5D
100
AcDbEntity
8
0
6
ByLayer
62
256
370
-1
100
AcDbLine
10
45.3816904297
20
-13.328523315
11
50.3816904297
21
-13.328523315
0
LINE
5
5E
100
AcDbEntity
8
0
6
ByLayer
62
256
370
-1
100
AcDbLine
10
42.3816904297
20
-18.828523315
11
50.3816904297
21
-18.8169996867
0
LINE
5
5F
100
AcDbEntity
8
0
6
ByLayer
62
256
370
-1
100
AcDbLine
10
64.6673808594
20
0
11
64.6673808594
21
-11.8264978251
0
ARC
5
60
100
AcDbEntity
8
0
6
ByLayer
62
256
370
-1
100
AcDbCircle
10
58.0235228996
20
-12.1846653552
40
6.65350528439
100
AcDbArc
50
273.085803823
51
3.08580382291
0
LINE
5
61
100
AcDbEntity
8
0
6
ByLayer
62
256
370
-1
100
AcDbLine
10
64.6673808594
20
0
11
57.3713808594
21
0
0
LINE
5
62
100
AcDbEntity
8
0
6
ByLayer
62
256
370
-1
100
AcDbLine
10
57.3713808594
20
-1.5
11
57.3816904297
21
-11.328523315
0
ARC
5
63
100
AcDbEntity
8
0
6
ByLayer
62
256
370
-1
100
AcDbCircle
10
55.3816904297
20
-11.328523315
40
0
100
AcDbArc
50
270
51
0
0
ARC
5
64
100
AcDbEntity
8
0
6
ByLayer
62
256
370
-1
100
AcDbCircle
10
55.3816904297
20
-11.328523315
40
2
100
AcDbArc
50
270
51
0
0
LINE
5
65
100
AcDbEntity
8
0
6
ByLayer
62
256
370
-1
100
AcDbLine
10
57.3713808594
20
-1.5
11
57.3713808594
21
0
0
LINE
5
66
100
AcDbEntity
8
0
6
ByLayer
62
256
370
-1
100
AcDbLine
10
55.3816904297
20
-13.328523315
11
50.3816904297
21
-13.328523315
0
LINE
5
67
100
AcDbEntity
8
0
6
ByLayer
62
256
370
-1
100
AcDbLine
10
58.3816904297
20
-18.828523315
11
50.3816904297
21
-18.8169996867
0
LINE
5
68
100
AcDbEntity
8
0
6
ByLayer
62
256
370
-1
100
AcDbLine
10
48
20
0
11
53.76
21
0
0
LINE
5
69
100
AcDbEntity
8
0
6
ByLayer
62
256
370
-1
100
AcDbLine
10
53.76
20
0
11
53.76
21
-8.832
0
LINE
5
6A
100
AcDbEntity
8
0
6
ByLayer
62
256
370
-1
100
AcDbLine
10
53.76
20
-8.832
11
48
21
-8.832
0
LINE
5
6B
100
AcDbEntity
8
0
6
ByLayer
62
256
370
-1
100
AcDbLine
10
48
20
-8.832
11
48
21
0
0
LINE
5
6C
100
AcDbEntity
8
0
6
ByLayer
62
256
370
-1
100
AcDbLine
10
72.96
20
-18.816
11
72.96
21
0
0
LINE
5
6D
100
AcDbEntity
8
0
6
ByLayer
62
256
370
-1
100
AcDbLine
10
72.96
20
0
11
80.0537856
21
0
0
LINE
5
6E
100
AcDbEntity
8
0
6
ByLayer
62
256
370
-1
100
AcDbLine
10
80.0537856
20
0
11
94.848
21
-10.752
0
LINE
5
6F
100
AcDbEntity
8
0
6
ByLayer
62
256
370
-1
100
AcDbLine
10
94.848
20
-10.752
11
94.848
21
0.000579801169181
0
LINE
5
70
100
AcDbEntity
8
0
6
ByLayer
62
256
370
-1
100
AcDbLine
10
94.848
20
0.000579801169181
11
102.528
21
0
0
LINE
5
71
100
AcDbEntity
8
0
6
ByLayer
62
256
370
-1
100
AcDbLine
10
102.528
20
0
11
102.528
21
-18.816
0
LINE
5
72
100
AcDbEntity
8
0
6
ByLayer
62
256
370
-1
100
AcDbLine
10
102.528
20
-18.816
11
95.34792192
21
-18.816
0
LINE
5
73
100
AcDbEntity
8
0
6
ByLayer
62
256
370
-1
100
AcDbLine
10
95.34792192
20
-18.816
11
80.0560704106
21
-8.08427939804
0
LINE
5
74
100
AcDbEntity
8
0
6
ByLayer
62
256
370
-1
100
AcDbLine
10
80.0560704106
20
-8.08427939804
11
80.0560704106
21
-18.8218318549
0
LINE
5
75
100
AcDbEntity
8
0
6
ByLayer
62
256
370
-1
100
AcDbLine
10
80.0560704106
20
-18.8218318549
11
72.96
21
-18.816
0
LINE
5
76
100
AcDbEntity
8
0
6
ByLayer
62
256
370
-1
100
AcDbLine
10
109.056
20
-8.448
11
109.056
21
0
0
LINE
5
77
100
AcDbEntity
8
0
6
ByLayer
62
256
370
-1
100
AcDbLine
10
109.056
20
0
11
130.418483599
21
0
0
ARC
5
78
100
AcDbEntity
8
0
6
ByLayer
62
256
370
-1
100
AcDbCircle
10
132.248585923
20
-8.45898345985
40
8.46691522462
100
AcDbArc
50
0.0743253066636
51
89.6992278603
0
LINE
5
79
100
AcDbEntity
8
0
6
ByLayer
62
256
370
-1
100
AcDbLine
10
130.418483599
20
0
11
132.293032487
21
0.0078151041813
0
LINE
5
7A
100
AcDbEntity
8
0
6
ByLayer
62
256
370
-1
100
AcDbLine
10
109.056
20
-8.448
11
116.352
21
-8.448
0
LINE
5
7B
100
AcDbEntity
8
0
6
ByLayer
62
256
370
-1
100
AcDbLine
10
116.352
20
-8.448
11
116.352
21
-5.376
0
LINE
5
7C
100
AcDbEntity
8
0
6
ByLayer
62
256
370
-1
100
AcDbLine
10
116.352
20
-5.376
11
130.509464053
21
-5.376
0
ARC
5
7D
100
AcDbEntity
8
0
6
ByLayer
62
256
370
-1
100
AcDbCircle
10
130.512487211
20
-8.44548614763
40
3.06948763639
100
AcDbArc
50
0
51
90.0564309729
0
LINE
5
7E
100
AcDbEntity
8
0
6
ByLayer
62
256
370
-1
100
AcDbLine
10
133.581974847
20
-8.44548614763
11
140.715494024
21
-8.448
0
LINE
5
7F
100
AcDbEntity
8
0
6
ByLayer
62
256
370
-1
100
AcDbLine
10
109.07141843
20
-10.3016113148
11
109.07141843
21
-18.7496113148
0
LINE
5
80
100
AcDbEntity
8
0
6
ByLayer
62
256
370
-1
100
AcDbLine
10
109.07141843
20
-18.7496113148
11
130.433902029
21
-18.7496113148
0
ARC
5
81
100
AcDbEntity
8
0
6
ByLayer
62
256
370
-1
100
AcDbCircle
10
132.264004353
20
-10.2906278549
40
8.46691522462
100
AcDbArc
50
270.30077214
51
359.925674693
0
LINE
5
82
100
AcDbEntity
8
0
6
ByLayer
62
256
370
-1
100
AcDbLine
10
130.433902029
20
-18.7496113148
11
132.308450917
21
-18.7574264189
0
LINE
5
83
100
AcDbEntity
8
0
6
ByLayer
62
256
370
-1
100
AcDbLine
10
109.07141843
20
-10.3016113148
11
116.36741843
21
-10.3016113148
0
LINE
5
84
100
AcDbEntity
8
0
6
ByLayer
62
256
370
-1
100
AcDbLine
10
116.36741843
20
-10.3016113148
11
116.36741843
21
-13.3736113148
0
LINE
5
85
100
AcDbEntity
8
0
6
ByLayer
62
256
370
-1
100
AcDbLine
10
116.36741843
20
-13.3736113148
11
130.524882483
21
-13.3736113148
0
ARC
5
86
100
AcDbEntity
8
0
6
ByLayer
62
256
370
-1
100
AcDbCircle
10
130.52790564
20
-10.3041251671
40
3.06948763639
100
AcDbArc
50
269.943569027
51
360
0
LINE
5
87
100
AcDbEntity
8
0
6
ByLayer
62
256
370
-1
100
AcDbLine
10
133.597393277
20
-10.3041251671
11
140.730912454
21
-10.3016113148
0
LINE
5
88
100
AcDbEntity
8
0
6
ByLayer
62
256
370
-1
100
AcDbLine
10
142.884962304
20
-18.800480256
11
156.8875776
21
0.00987456000001
0
LINE
5
89
100
AcDbEntity
8
0
6
ByLayer
62
256
370
-1
100
AcDbLine
10
156.8875776
20
0.00987456000001
11
160.896
21
5.48578176449e-005
0
LINE
5
8A
100
AcDbEntity
8
0
6
ByLayer
62
256
370
-1
100
AcDbLine
10
160.896
20
5.48578176449e-005
11
160.896
21
-5.43193287498
0
ARC
5
8B
100
AcDbEntity
8
0
6
ByLayer
62
256
370
-1
100
AcDbCircle
10
160.900239823
20
-7.20166361862
40
1.7697358224
100
AcDbArc
50
90.1372658042
51
146.052899921
0
LINE
5
8C
100
AcDbEntity
8
0
6
ByLayer
62
256
370
-1
100
AcDbLine
10
159.432149261
20
-6.21339493972
11
156.309778777
21
-10.6972859612
0
LINE
5
8D
100
AcDbEntity
8
0
6
ByLayer
62
256
370
-1
100
AcDbLine
10
156.309778777
20
-10.6972859612
11
160.896
21
-10.695425383
0
LINE
5
8E
100
AcDbEntity
8
0
6
ByLayer
62
256
370
-1
100
AcDbLine
10
160.896
20
-10.695425383
11
160.896
21
-16.128
0
LINE
5
8F
100
AcDbEntity
8
0
6
ByLayer
62
256
370
-1
100
AcDbLine
10
160.896
20
-16.128
11
152.344068096
21
-16.128
0
LINE
5
90
100
AcDbEntity
8
0
6
ByLayer
62
256
370
-1
100
AcDbLine
10
152.344068096
20
-16.128
11
150.32331264
21
-18.798176256
0
LINE
5
91
100
AcDbEntity
8
0
6
ByLayer
62
256
370
-1
100
AcDbLine
10
150.32331264
20
-18.798176256
11
142.884962304
21
-18.800480256
0
LINE
5
92
100
AcDbEntity
8
0
6
ByLayer
62
256
370
-1
100
AcDbLine
10
180.712408126
20
-18.800480256
11
166.70979283
21
0.00987456000001
0
LINE
5
93
100
AcDbEntity
8
0
6
ByLayer
62
256
370
-1
100
AcDbLine
10
166.70979283
20
0.00987456000001
11
162.70137043
21
5.48578176449e-005
0
LINE
5
94
100
AcDbEntity
8
0
6
ByLayer
62
256
370
-1
100
AcDbLine
10
162.70137043
20
5.48578176449e-005
11
162.70137043
21
-5.43193287498
0
ARC
5
95
100
AcDbEntity
8
0
6
ByLayer
62
256
370
-1
100
AcDbCircle
10
162.697130607
20
-7.20166361862
40
1.7697358224
100
AcDbArc
50
33.9471000792
51
89.8627341958
0
LINE
5
96
100
AcDbEntity
8
0
6
ByLayer
62
256
370
-1
100
AcDbLine
10
164.165221169
20
-6.21339493972
11
167.287591653
21
-10.6972859612
0
LINE
5
97
100
AcDbEntity
8
0
6
ByLayer
62
256
370
-1
100
AcDbLine
10
167.287591653
20
-10.6972859612
11
162.70137043
21
-10.695425383
0
LINE
5
98
100
AcDbEntity
8
0
6
ByLayer
62
256
370
-1
100
AcDbLine
10
162.70137043
20
-10.695425383
11
162.70137043
21
-16.128
0
LINE
5
99
100
AcDbEntity
8
0
6
ByLayer
62
256
370
-1
100
AcDbLine
10
162.70137043
20
-16.128
11
171.253302334
21
-16.128
0
LINE
5
9A
100
AcDbEntity
8
0
6
ByLayer
62
256
370
-1
100
AcDbLine
10
171.253302334
20
-16.128
11
173.27405779
21
-18.798176256
0
LINE
5
9B
100
AcDbEntity
8
0
6
ByLayer
62
256
370
-1
100
AcDbLine
10
173.27405779
20
-18.798176256
11
180.712408126
21
-18.800480256
0
LINE
5
9C
100
AcDbEntity
8
0
6
ByLayer
62
256
370
-1
100
AcDbLine
10
183.936
20
5.48578176449e-005
11
205.40200659
21
5.48578176449e-005
0
ARC
5
9D
100
AcDbEntity
8
0
6
ByLayer
62
256
370
-1
100
AcDbCircle
10
205.404690944
20
-7.30044786639
40
7.30050321771
100
AcDbArc
50
0
51
90.0210673411
0
LINE
5
9E
100
AcDbEntity
8
0
6
ByLayer
62
256
370
-1
100
AcDbLine
10
212.705194162
20
-7.30044786639
11
206.917192985
21
-7.30044786639
0
ARC
5
9F
100
AcDbEntity
8
0
6
ByLayer
62
256
370
-1
100
AcDbCircle
10
205.038374902
20
-7.3037532732
40
1.87882099062
100
AcDbArc
50
0.100800426953
51
90
0
LINE
5
A0
100
AcDbEntity
8
0
6
ByLayer
62
256
370
-1
100
AcDbLine
10
205.038374902
20
-5.42493228258
11
190.847690674
21
-5.42493228258
0
LINE
5
A1
100
AcDbEntity
8
0
6
ByLayer
62
256
370
-1
100
AcDbLine
10
190.847690674
20
-5.42493228258
11
190.847690674
21
-7.29600002557
0
LINE
5
A2
100
AcDbEntity
8
0
6
ByLayer
62
256
370
-1
100
AcDbLine
10
190.847690674
20
-7.29600002557
11
183.936
21
-7.29600002557
0
LINE
5
A3
100
AcDbEntity
8
0
6
ByLayer
62
256
370
-1
100
AcDbLine
10
183.936
20
-7.29600002557
11
183.936
21
5.48578176449e-005
0
ARC
5
A4
100
AcDbEntity
8
0
6
ByLayer
62
256
370
-1
100
AcDbCircle
10
205.404690944
20
-8.76853627387
40
7.30050321771
100
AcDbArc
50
269.978932659
51
360
0
LINE
5
A5
100
AcDbEntity
8
0
6
ByLayer
62
256
370
-1
100
AcDbLine
10
212.705194162
20
-8.76853627387
11
206.917192985
21
-8.76853627387
0
ARC
5
A6
100
AcDbEntity
8
0
6
ByLayer
62
256
370
-1
100
AcDbCircle
10
205.038374902
20
-8.76523086705
40
1.87882099062
100
AcDbArc
50
270
51
359.899199573
0
LINE
5
A7
100
AcDbEntity
8
0
6
ByLayer
62
256
370
-1
100
AcDbLine
10
205.038374902
20
-10.6440518577
11
190.847690674
21
-10.6440518577
0
LINE
5
A8
100
AcDbEntity
8
0
6
ByLayer
62
256
370
-1
100
AcDbLine
10
190.847690674
20
-10.6440518577
11
190.847690674
21
-8.77298411469
0
LINE
5
A9
100
AcDbEntity
8
0
6
ByLayer
62
256
370
-1
100
AcDbLine
10
190.847690674
20
-8.77298411469
11
183.936
21
-8.77298411469
0
LINE
5
AA
100
AcDbEntity
8
0
6
ByLayer
62
256
370
-1
100
AcDbLine
10
183.936
20
-8.77298411469
11
183.936
21
-16.0690389981
0
LINE
5
AB
100
AcDbEntity
8
0
6
ByLayer
62
256
370
-1
100
AcDbLine
10
183.936
20
-16.0690389981
11
183.936
21
-18.7894853832
0
LINE
5
AC
100
AcDbEntity
8
0
6
ByLayer
62
256
370
-1
100
AcDbLine
10
190.844751811
20
-18.7894853832
11
183.936
21
-18.7894853832
0
LINE
5
AD
100
AcDbEntity
8
0
6
ByLayer
62
256
370
-1
100
AcDbLine
10
190.844751811
20
-16.0690389981
11
190.844751811
21
-18.7894853832
0
LINE
5
AE
100
AcDbEntity
8
0
6
ByLayer
62
256
370
-1
100
AcDbLine
10
190.844751811
20
-16.0690389981
11
205.40200659
21
-16.0690389981
0
LINE
5
AF
100
AcDbEntity
8
0
6
ByLayer
62
256
370
-1
100
AcDbLine
10
218.30969043
20
5.48578176449e-005
11
239.77569702
21
5.48578176449e-005
0
ARC
5
B0
100
AcDbEntity
8
0
6
ByLayer
62
256
370
-1
100
AcDbCircle
10
239.778381374
20
-7.30044786639
40
7.30050321771
100
AcDbArc
50
0
51
90.0210673411
0
LINE
5
B1
100
AcDbEntity
8
0
6
ByLayer
62
256
370
-1
100
AcDbLine
10
247.078884592
20
-7.30044786639
11
241.290883415
21
-7.30044786639
0
ARC
5
B2
100
AcDbEntity
8
0
6
ByLayer
62
256
370
-1
100
AcDbCircle
10
239.412065332
20
-7.3037532732
40
1.87882099062
100
AcDbArc
50
0.100800426953
51
90
0
LINE
5
B3
100
AcDbEntity
8
0
6
ByLayer
62
256
370
-1
100
AcDbLine
10
239.412065332
20
-5.42493228258
11
225.221381104
21
-5.42493228258
0
LINE
5
B4
100
AcDbEntity
8
0
6
ByLayer
62
256
370
-1
100
AcDbLine
10
225.221381104
20
-5.42493228258
11
225.221381104
21
-7.29600002557
0
LINE
5
B5
100
AcDbEntity
8
0
6
ByLayer
62
256
370
-1
100
AcDbLine
10
225.221381104
20
-7.29600002557
11
218.30969043
21
-7.29600002557
0
LINE
5
B6
100
AcDbEntity
8
0
6
ByLayer
62
256
370
-1
100
AcDbLine
10
218.30969043
20
-7.29600002557
11
218.30969043
21
5.48578176449e-005
0
ARC
5
B7
100
AcDbEntity
8
0
6
ByLayer
62
256
370
-1
100
AcDbCircle
10
239.778381374
20
-8.76853627387
40
7.30050321771
100
AcDbArc
50
269.978932659
51
360
0
LINE
5
B8
100
AcDbEntity
8
0
6
ByLayer
62
256
370
-1
100
AcDbLine
10
247.078884592
20
-8.76853627387
11
241.290883415
21
-8.76853627387
0
ARC
5
B9
100
AcDbEntity
8
0
6
ByLayer
62
256
370
-1
100
AcDbCircle
10
239.412065332
20
-8.76523086705
40
1.87882099062
100
AcDbArc
50
270
51
359.899199573
0
LINE
5
BA
100
AcDbEntity
8
0
6
ByLayer
62
256
370
-1
100
AcDbLine
10
239.412065332
20
-10.6440518577
11
225.221381104
21
-10.6440518577
0
LINE
5
BB
100
AcDbEntity
8
0
6
ByLayer
62
256
370
-1
100
AcDbLine
10
225.221381104
20
-10.6440518577
11
225.221381104
21
-8.77298411469
0
LINE
5
BC
100
AcDbEntity
8
0
6
ByLayer
62
256
370
-1
100
AcDbLine
10
225.221381104
20
-8.77298411469
11
218.30969043
21
-8.77298411469
0
LINE
5
BD
100
AcDbEntity
8
0
6
ByLayer
62
256
370
-1
100
AcDbLine
10
218.30969043
20
-8.77298411469
11
218.30969043
21
-16.0690389981
0
LINE
5
BE
100
AcDbEntity
8
0
6
ByLayer
62
256
370
-1
100
AcDbLine
10
218.30969043
20
-16.0690389981
11
218.30969043
21
-18.7894853832
0
LINE
5
BF
100
AcDbEntity
8
0
6
ByLayer
62
256
370
-1
100
AcDbLine
10
225.218442241
20
-18.7894853832
11
218.30969043
21
-18.7894853832
0
LINE
5
C0
100
AcDbEntity
8
0
6
ByLayer
62
256
370
-1
100
AcDbLine
10
225.218442241
20
-16.0690389981
11
225.218442241
21
-18.7894853832
0
LINE
5
C1
100
AcDbEntity
8
0
6
ByLayer
62
256
370
-1
100
AcDbLine
10
225.218442241
20
-16.0690389981
11
239.77569702
21
-16.0690389981
0
ENDBLK
5
48
330
46
100
AcDbEntity
8
0
100
AcDbBlockEnd
0
BLOCK
5
4A
330
49
100
AcDbEntity
8
0
100
AcDbBlockBegin
2
Zuendapp-Wappen
70
0
10
0
20
0
3
Zuendapp-Wappen
1

0
LINE
5
C2
100
AcDbEntity
8
0
6
ByLayer
62
256
370
-1
100
AcDbLine
10
-116.039544979
20
297.272218989
11
-116.101212414
21
297.272168109
0
LINE
5
C3
100
AcDbEntity
8
0
6
ByLayer
62
256
370
-1
100
AcDbLine
10
-1.310804406
20
316.524477845
11
0
21
316.524477845
0
LINE
5
C4
100
AcDbEntity
8
0
6
ByLayer
62
256
370
-1
100
AcDbLine
10
-1.498874879
20
319.421871765
11
0.00289576700001
21
319.421871765
0
LINE
5
C5
100
AcDbEntity
8
0
6
ByLayer
62
256
370
-1
100
AcDbLine
10
1.310801787
20
316.52185771
11
0
21
316.524477845
0
LINE
5
C6
100
AcDbEntity
8
0
6
ByLayer
62
256
370
-1
100
AcDbLine
10
1.504663413
20
319.418869914
11
0.00289576700001
21
319.421871765
0
ARC
5
C7
100
AcDbEntity
8
0
6
ByLayer
62
256
370
-1
100
AcDbCircle
10
-1.498874879
20
258.421871765
40
61
100
AcDbArc
50
90
51
117.437473449
0
ARC
5
C8
100
AcDbEntity
8
0
6
ByLayer
62
256
370
-1
100
AcDbCircle
10
-29.376085976
20
312.116481378
40
0.5
100
AcDbArc
50
117.437473449
51
225.380765278
0
LINE
5
C9
100
AcDbEntity
8
0
6
ByLayer
62
256
370
-1
100
AcDbLine
10
-29.727282
20
311.760586235
11
-28.064750996
21
310.120006731
0
ARC
5
CA
100
AcDbEntity
8
0
6
ByLayer
62
256
370
-1
100
AcDbCircle
10
-1.310804406
20
260.524477845
40
56
100
AcDbArc
50
90
51
117.859520703
0
ARC
5
CB
100
AcDbEntity
8
0
6
ByLayer
62
256
370
-1
100
AcDbCircle
10
-27.713554972
20
310.475901874
40
0.5
100
AcDbArc
50
225.380765278
51
297.859520703
0
LINE
5
CC
100
AcDbEntity
8
0
6
ByLayer
62
256
370
-1
100
AcDbLine
10
-31.366271128
20
309.585723109
11
-31.366271128
21
267.770368338
0
ARC
5
CD
100
AcDbEntity
8
0
6
ByLayer
62
256
370
-1
100
AcDbCircle
10
-30.866271128
20
309.585723109
40
0.5
100
AcDbArc
50
45
51
180
0
LINE
5
CE
100
AcDbEntity
8
0
6
ByLayer
62
256
370
-1
100
AcDbLine
10
-30.512717738
20
309.939276499
11
-29.364964937
21
308.791523699
0
LINE
5
CF
100
AcDbEntity
8
0
6
ByLayer
62
256
370
-1
100
AcDbLine
10
-29.218518327
20
308.437970308
11
-29.218518327
21
267.126506775
0
ARC
5
D0
100
AcDbEntity
8
0
6
ByLayer
62
256
370
-1
100
AcDbCircle
10
-29.718518327
20
308.437970308
40
0.5
100
AcDbArc
50
0
51
45
0
ARC
5
D1
100
AcDbEntity
8
0
6
ByLayer
62
256
370
-1
100
AcDbCircle
10
1.38273204
20
258.418991777
40
61
100
AcDbArc
50
62.4479993755
51
89.8854728246
0
ARC
5
D2
100
AcDbEntity
8
0
6
ByLayer
62
256
370
-1
100
AcDbCircle
10
29.367216256
20
312.057771061
40
0.5
100
AcDbArc
50
314.504707546
51
62.4479993755
0
LINE
5
D3
100
AcDbEntity
8
0
6
ByLayer
62
256
370
-1
100
AcDbLine
10
29.717700188
20
311.701174632
11
28.051893192
21
310.063921597
0
ARC
5
D4
100
AcDbEntity
8
0
6
ByLayer
62
256
370
-1
100
AcDbCircle
10
1.198864789
20
260.521969585
40
56
100
AcDbArc
50
62.0259521217
51
89.8854728246
0
ARC
5
D5
100
AcDbEntity
8
0
6
ByLayer
62
256
370
-1
100
AcDbCircle
10
27.70140926
20
310.420518026
40
0.5
100
AcDbArc
50
242.025952122
51
314.504707546
0
LINE
5
D6
100
AcDbEntity
8
0
6
ByLayer
62
256
370
-1
100
AcDbLine
10
31.352338763
20
309.523039717
11
31.268755097
21
267.707768482
0
ARC
5
D7
100
AcDbEntity
8
0
6
ByLayer
62
256
370
-1
100
AcDbCircle
10
30.852339762
20
309.524039154
40
0.5
100
AcDbArc
50
359.885472825
51
134.885472825
0
LINE
5
D8
100
AcDbEntity
8
0
6
ByLayer
62
256
370
-1
100
AcDbLine
10
30.499493787
20
309.878298547
11
29.349449064
21
308.732842254
0
LINE
5
D9
100
AcDbEntity
8
0
6
ByLayer
62
256
370
-1
100
AcDbLine
10
29.202296038
20
308.379582298
11
29.119719588
21
267.068201296
0
ARC
5
DA
100
AcDbEntity
8
0
6
ByLayer
62
256
370
-1
100
AcDbCircle
10
29.70229504
20
308.378582861
40
0.5
100
AcDbArc
50
134.885472825
51
179.885472825
0
ARC
5
DB
100
AcDbEntity
8
0
6
ByLayer
62
256
370
-1
100
AcDbCircle
10
-18.88018452
20
267.164147294
40
48
100
AcDbArc
50
295.591829265
51
359.885472825
0
ARC
5
DC
100
AcDbEntity
8
0
6
ByLayer
62
256
370
-1
100
AcDbCircle
10
2.069736648
20
223.422281729
40
0.5
100
AcDbArc
50
115.591829265
51
179.557654557
0
ARC
5
DD
100
AcDbEntity
8
0
6
ByLayer
62
256
370
-1
100
AcDbCircle
10
-18.731145015
20
267.807712231
40
50
100
AcDbArc
50
294.843209487
51
359.885472825
0
LINE
5
DE
100
AcDbEntity
8
0
6
ByLayer
62
256
370
-1
100
AcDbLine
10
1.569751549
20
223.426141883
11
1.56562968
21
222.892258253
0
ARC
5
DF
100
AcDbEntity
8
0
6
ByLayer
62
256
370
-1
100
AcDbCircle
10
2.065614779
20
222.888398099
40
0.5
100
AcDbArc
50
179.557654557
51
294.843209487
0
ARC
5
E0
100
AcDbEntity
8
0
6
ByLayer
62
256
370
-1
100
AcDbCircle
10
18.781481673
20
267.126506775
40
48
100
AcDbArc
50
180
51
244.293643559
0
ARC
5
E1
100
AcDbEntity
8
0
6
ByLayer
62
256
370
-1
100
AcDbCircle
10
-2.255832162
20
223.426604869
40
0.5
100
AcDbArc
50
0.327818267319
51
64.2936435593
0
LINE
5
E2
100
AcDbEntity
8
0
6
ByLayer
62
256
370
-1
100
AcDbLine
10
-1.755840346
20
223.429465608
11
-1.752785652
21
222.895574805
0
ARC
5
E3
100
AcDbEntity
8
0
6
ByLayer
62
256
370
-1
100
AcDbCircle
10
18.633728872
20
267.770368338
40
50
100
AcDbArc
50
180
51
245.042263337
0
ARC
5
E4
100
AcDbEntity
8
0
6
ByLayer
62
256
370
-1
100
AcDbCircle
10
-2.252777468
20
222.892714066
40
0.5
100
AcDbArc
50
245.042263338
51
0.327818267319
0
ARC
5
E5
100
AcDbEntity
8
0
6
ByLayer
62
256
370
-1
100
AcDbCircle
10
-4.934475686
20
307.10064089
40
0.5
100
AcDbArc
50
90
51
154.100812006
0
LINE
5
E6
100
AcDbEntity
8
0
6
ByLayer
62
256
370
-1
100
AcDbLine
10
-4.934475686
20
307.60064089
11
6.943390761
21
307.60064089
0
ARC
5
E7
100
AcDbEntity
8
0
6
ByLayer
62
256
370
-1
100
AcDbCircle
10
6.943390761
20
307.10064089
40
0.5
100
AcDbArc
50
319.823874835
51
90
0
LINE
5
E8
100
AcDbEntity
8
0
6
ByLayer
62
256
370
-1
100
AcDbLine
10
-7.294011673
20
303.38591041
11
-5.38425767
21
307.31903541
0
ARC
5
E9
100
AcDbEntity
8
0
6
ByLayer
62
256
370
-1
100
AcDbCircle
10
-6.844229689
20
303.16751589
40
0.5
100
AcDbArc
50
154.100812004
51
270
0
LINE
5
EA
100
AcDbEntity
8
0
6
ByLayer
62
256
370
-1
100
AcDbLine
10
3.622450767
20
302.66751589
11
-6.844229689
21
302.66751589
0
LINE
5
EB
100
AcDbEntity
8
0
6
ByLayer
62
256
370
-1
100
AcDbLine
10
7.325423221
20
306.778071209
11
4.004483228
21
302.844946209
0
ARC
5
EC
100
AcDbEntity
8
0
6
ByLayer
62
256
370
-1
100
AcDbCircle
10
3.622450767
20
303.16751589
40
0.5
100
AcDbArc
50
270
51
319.823874838
0
ARC
5
ED
100
AcDbEntity
8
0
6
ByLayer
62
256
370
-1
100
AcDbCircle
10
1.247424715
20
300.36751709
40
0.5
100
AcDbArc
50
319.775908507
51
90
0
LINE
5
EE
100
AcDbEntity
8
0
6
ByLayer
62
256
370
-1
100
AcDbLine
10
1.629186996
20
300.044627696
11
1.045726236
21
299.354783698
0
LINE
5
EF
100
AcDbEntity
8
0
6
ByLayer
62
256
370
-1
100
AcDbLine
10
1.068774598
20
298.68357789
11
1.84631675
21
297.882825525
0
ARC
5
F0
100
AcDbEntity
8
0
6
ByLayer
62
256
370
-1
100
AcDbCircle
10
1.427488517
20
299.031894304
40
0.5
100
AcDbArc
50
139.775908507
51
224.157475766
0
ARC
5
F1
100
AcDbEntity
8
0
6
ByLayer
62
256
370
-1
100
AcDbCircle
10
-2.852186433
20
298.306028745
40
0.5
100
AcDbArc
50
317.893208733
51
90
0
LINE
5
F2
100
AcDbEntity
8
0
6
ByLayer
62
256
370
-1
100
AcDbLine
10
1.247424715
20
300.86751709
11
-8.226117119
21
300.86751709
0
ARC
5
F3
100
AcDbEntity
8
0
6
ByLayer
62
256
370
-1
100
AcDbCircle
10
-8.226117119
20
300.36751709
40
0.5
100
AcDbArc
50
90
51
153.953391294
0
LINE
5
F4
100
AcDbEntity
8
0
6
ByLayer
62
256
370
-1
100
AcDbLine
10
-8.744908907
20
298.806028745
11
-2.852186433
21
298.806028745
0
LINE
5
F5
100
AcDbEntity
8
0
6
ByLayer
62
256
370
-1
100
AcDbLine
10
-8.675335691
20
300.587068164
11
-9.194127479
21
299.525579819
0
ARC
5
F6
100
AcDbEntity
8
0
6
ByLayer
62
256
370
-1
100
AcDbCircle
10
-8.744908907
20
299.306028745
40
0.5
100
AcDbArc
50
153.953391294
51
270
0
LINE
5
F7
100
AcDbEntity
8
0
6
ByLayer
62
256
370
-1
100
AcDbLine
10
-2.481238248
20
297.970771465
11
-3.817283873
21
296.492492755
0
LINE
5
F8
100
AcDbEntity
8
0
6
ByLayer
62
256
370
-1
100
AcDbLine
10
-3.80105399
20
295.804850846
11
-2.372414877
21
294.366750548
0
ARC
5
F9
100
AcDbEntity
8
0
6
ByLayer
62
256
370
-1
100
AcDbCircle
10
-3.446335688
20
296.157235475
40
0.5
100
AcDbArc
50
137.893208733
51
224.810905719
0
LINE
5
FA
100
AcDbEntity
8
0
6
ByLayer
62
256
370
-1
100
AcDbLine
10
-3.582790348
20
292.804362241
11
-5.075991451
21
294.358927773
0
ARC
5
FB
100
AcDbEntity
8
0
6
ByLayer
62
256
370
-1
100
AcDbCircle
10
-5.436590282
20
294.012563106
40
0.5
100
AcDbArc
50
43.8465495307
51
137.036329208
0
LINE
5
FC
100
AcDbEntity
8
0
6
ByLayer
62
256
370
-1
100
AcDbLine
10
-4.755517747
20
290.937058101
11
-6.574869367
21
292.831177597
0
LINE
5
FD
100
AcDbEntity
8
0
6
ByLayer
62
256
370
-1
100
AcDbLine
10
-5.802483275
20
294.353330355
11
-6.580163528
21
293.518309513
0
ARC
5
FE
100
AcDbEntity
8
0
6
ByLayer
62
256
370
-1
100
AcDbCircle
10
-6.214270536
20
293.177542264
40
0.5
100
AcDbArc
50
137.036329208
51
223.846549536
0
ARC
5
FF
100
AcDbEntity
8
0
6
ByLayer
62
256
370
-1
100
AcDbCircle
10
-23.26365758
20
273.500676538
40
35
100
AcDbArc
50
33.0433055698
51
44.1574757393
0
ARC
5
100
100
AcDbEntity
8
0
6
ByLayer
62
256
370
-1
100
AcDbCircle
10
6.494525445
20
292.85785978
40
0.5
100
AcDbArc
50
213.04330557
51
316.119395874
0
LINE
5
101
100
AcDbEntity
8
0
6
ByLayer
62
256
370
-1
100
AcDbLine
10
6.854918346
20
292.511280847
11
7.732700828
21
293.424050046
0
ARC
5
102
100
AcDbEntity
8
0
6
ByLayer
62
256
370
-1
100
AcDbCircle
10
7.372307927
20
293.770628979
40
0.5
100
AcDbArc
50
316.119395874
51
44.4279590688
0
LINE
5
103
100
AcDbEntity
8
0
6
ByLayer
62
256
370
-1
100
AcDbLine
10
7.729373514
20
294.120634931
11
7.242834629
21
294.616987325
0
ARC
5
104
100
AcDbEntity
8
0
6
ByLayer
62
256
370
-1
100
AcDbCircle
10
7.599900217
20
294.966993277
40
0.5
100
AcDbArc
50
90.0041813687
51
224.427959069
0
LINE
5
105
100
AcDbEntity
8
0
6
ByLayer
62
256
370
-1
100
AcDbLine
10
7.599863727
20
295.466993276
11
13.803114695
21
295.467445981
0
ARC
5
106
100
AcDbEntity
8
0
6
ByLayer
62
256
370
-1
100
AcDbCircle
10
13.803151184
20
294.967445982
40
0.5
100
AcDbArc
50
0
51
90.0041813687
0
LINE
5
107
100
AcDbEntity
8
0
6
ByLayer
62
256
370
-1
100
AcDbLine
10
14.303151184
20
288.638622471
11
14.303151184
21
294.967445982
0
ARC
5
108
100
AcDbEntity
8
0
6
ByLayer
62
256
370
-1
100
AcDbCircle
10
13.803151184
20
288.638622471
40
0.5
100
AcDbArc
50
224.427959065
51
0
0
LINE
5
109
100
AcDbEntity
8
0
6
ByLayer
62
256
370
-1
100
AcDbLine
10
13.446085597
20
288.288616519
11
12.914951188
21
288.830463932
0
ARC
5
10A
100
AcDbEntity
8
0
6
ByLayer
62
256
370
-1
100
AcDbCircle
10
12.557885601
20
288.48045798
40
0.5
100
AcDbArc
50
44.4279590646
51
135.674992773
0
LINE
5
10B
100
AcDbEntity
8
0
6
ByLayer
62
256
370
-1
100
AcDbLine
10
9.653051466
20
286.221948325
11
12.200191682
21
288.829821775
0
ARC
5
10C
100
AcDbEntity
8
0
6
ByLayer
62
256
370
-1
100
AcDbCircle
10
10.010745384
20
285.872584531
40
0.5
100
AcDbArc
50
135.674992773
51
200.395867881
0
ARC
5
10D
100
AcDbEntity
8
0
6
ByLayer
62
256
370
-1
100
AcDbCircle
10
-26.493259389
20
270.404595803
40
34
100
AcDbArc
50
319.734534609
51
44.8109057047
0
ARC
5
10E
100
AcDbEntity
8
0
6
ByLayer
62
256
370
-1
100
AcDbCircle
10
-0.167757047
20
248.106211861
40
0.5
100
AcDbArc
50
139.734534609
51
226.241194049
0
ARC
5
10F
100
AcDbEntity
8
0
6
ByLayer
62
256
370
-1
100
AcDbCircle
10
-23.26365758
20
273.500676538
40
35
100
AcDbArc
50
312.306005767
51
20.3958678807
0
LINE
5
110
100
AcDbEntity
8
0
6
ByLayer
62
256
370
-1
100
AcDbLine
10
-0.387863295
20
247.624708883
11
-0.513569082
21
247.745083025
0
ARC
5
111
100
AcDbEntity
8
0
6
ByLayer
62
256
370
-1
100
AcDbCircle
10
-0.04205126
20
247.985837719
40
0.5
100
AcDbArc
50
226.241194049
51
312.306005767
0
ARC
5
112
100
AcDbEntity
8
0
6
ByLayer
62
256
370
-1
100
AcDbCircle
10
-1.903379802
20
249.768220476
40
0.5
100
AcDbArc
50
226.24119402
51
321.62525592
0
ARC
5
113
100
AcDbEntity
8
0
6
ByLayer
62
256
370
-1
100
AcDbCircle
10
-27.382313232
20
269.944294208
40
33
100
AcDbArc
50
321.62525592
51
339.290263322
0
ARC
5
114
100
AcDbEntity
8
0
6
ByLayer
62
256
370
-1
100
AcDbCircle
10
3.017665105
20
258.451195536
40
0.5
100
AcDbArc
50
339.290263322
51
70.8180178708
0
LINE
5
115
100
AcDbEntity
8
0
6
ByLayer
62
256
370
-1
100
AcDbLine
10
3.181949931
20
258.923435407
11
2.634718416
21
259.113808646
0
ARC
5
116
100
AcDbEntity
8
0
6
ByLayer
62
256
370
-1
100
AcDbCircle
10
2.47043359
20
258.641568775
40
0.5
100
AcDbArc
50
70.8180178708
51
159.908522854
0
ARC
5
117
100
AcDbEntity
8
0
6
ByLayer
62
256
370
-1
100
AcDbCircle
10
-27.112645304
20
269.462448736
40
31
100
AcDbArc
50
334.768301076
51
339.908522854
0
ARC
5
118
100
AcDbEntity
8
0
6
ByLayer
62
256
370
-1
100
AcDbCircle
10
0.477390912
20
256.46091415
40
0.5
100
AcDbArc
50
228.328457954
51
334.768301076
0
LINE
5
119
100
AcDbEntity
8
0
6
ByLayer
62
256
370
-1
100
AcDbLine
10
-2.880525835
20
258.780346107
11
0.144961198
21
256.0874299
0
ARC
5
11A
100
AcDbEntity
8
0
6
ByLayer
62
256
370
-1
100
AcDbCircle
10
-2.54809612
20
259.153830357
40
0.5
100
AcDbArc
50
132.551012305
51
228.328457954
0
LINE
5
11B
100
AcDbEntity
8
0
6
ByLayer
62
256
370
-1
100
AcDbLine
10
-2.886219301
20
259.522168129
11
2.588150385
21
264.54747759
0
ARC
5
11C
100
AcDbEntity
8
0
6
ByLayer
62
256
370
-1
100
AcDbCircle
10
2.926273566
20
264.179139817
40
0.5
100
AcDbArc
50
350.024721601
51
132.551012305
0
ARC
5
11D
100
AcDbEntity
8
0
6
ByLayer
62
256
370
-1
100
AcDbCircle
10
-27.112645304
20
269.462448736
40
31
100
AcDbArc
50
344.544515899
51
350.024721601
0
ARC
5
11E
100
AcDbEntity
8
0
6
ByLayer
62
256
370
-1
100
AcDbCircle
10
3.248245173
20
261.068026217
40
0.5
100
AcDbArc
50
164.544515899
51
253.635020899
0
LINE
5
11F
100
AcDbEntity
8
0
6
ByLayer
62
256
370
-1
100
AcDbLine
10
3.691948805
20
260.416619637
11
3.107367652
21
260.588283032
0
ARC
5
120
100
AcDbEntity
8
0
6
ByLayer
62
256
370
-1
100
AcDbCircle
10
3.832826326
20
260.896362822
40
0.5
100
AcDbArc
50
253.635020899
51
343.835391045
0
ARC
5
121
100
AcDbEntity
8
0
6
ByLayer
62
256
370
-1
100
AcDbCircle
10
3.228492737
20
266.353535365
40
0.5
100
AcDbArc
50
278.622065597
51
354.149589334
0
ARC
5
122
100
AcDbEntity
8
0
6
ByLayer
62
256
370
-1
100
AcDbCircle
10
-27.112645304
20
269.462448736
40
31
100
AcDbArc
50
354.149589334
51
356.850481351
0
ARC
5
123
100
AcDbEntity
8
0
6
ByLayer
62
256
370
-1
100
AcDbCircle
10
4.339775806
20
267.731782305
40
0.5
100
AcDbArc
50
87.7599763787
51
176.850481351
0
LINE
5
124
100
AcDbEntity
8
0
6
ByLayer
62
256
370
-1
100
AcDbLine
10
5.059949636
20
268.203994552
11
4.359318721
21
268.231400234
0
ARC
5
125
100
AcDbEntity
8
0
6
ByLayer
62
256
370
-1
100
AcDbCircle
10
-27.382313232
20
269.944294208
40
33
100
AcDbArc
50
343.835391045
51
356.048010969
0
ARC
5
126
100
AcDbEntity
8
0
6
ByLayer
62
256
370
-1
100
AcDbCircle
10
5.040406722
20
267.704376624
40
0.5
100
AcDbArc
50
356.048010969
51
87.7599763787
0
ARC
5
127
100
AcDbEntity
8
0
6
ByLayer
62
256
370
-1
100
AcDbCircle
10
4.375544876
20
270.32493306
40
0.5
100
AcDbArc
50
181.56898058
51
270.659485567
0
LINE
5
128
100
AcDbEntity
8
0
6
ByLayer
62
256
370
-1
100
AcDbLine
10
5.121111788
20
269.833481936
11
4.381299846
21
269.824966181
0
ARC
5
129
100
AcDbEntity
8
0
6
ByLayer
62
256
370
-1
100
AcDbCircle
10
5.115356818
20
270.333448816
40
0.5
100
AcDbArc
50
270.659485567
51
0.686075367288
0
LINE
5
12A
100
AcDbEntity
8
0
6
ByLayer
62
256
370
-1
100
AcDbLine
10
-3.148124436
20
264.880935397
11
3.303450797
21
265.859186005
0
ARC
5
12B
100
AcDbEntity
8
0
6
ByLayer
62
256
370
-1
100
AcDbCircle
10
-3.223082495
20
265.375284756
40
0.5
100
AcDbArc
50
133.607853888
51
278.622065597
0
LINE
5
12C
100
AcDbEntity
8
0
6
ByLayer
62
256
370
-1
100
AcDbLine
10
-3.567941897
20
265.737323418
11
2.967459231
21
271.962610275
0
ARC
5
12D
100
AcDbEntity
8
0
6
ByLayer
62
256
370
-1
100
AcDbCircle
10
-27.112645304
20
269.462448736
40
31
100
AcDbArc
50
1.56898058048
51
4.01986814601
0
ARC
5
12E
100
AcDbEntity
8
0
6
ByLayer
62
256
370
-1
100
AcDbCircle
10
3.312318633
20
271.600571613
40
0.5
100
AcDbArc
50
4.01986814601
51
133.607853888
0
ARC
5
12F
100
AcDbEntity
8
0
6
ByLayer
62
256
370
-1
100
AcDbCircle
10
-27.382313232
20
269.944294208
40
33
100
AcDbArc
50
0.686075367288
51
10.4132545595
0
ARC
5
130
100
AcDbEntity
8
0
6
ByLayer
62
256
370
-1
100
AcDbCircle
10
4.582401497
20
275.818561166
40
0.5
100
AcDbArc
50
10.4132545595
51
102.225908854
0
LINE
5
131
100
AcDbEntity
8
0
6
ByLayer
62
256
370
-1
100
AcDbLine
10
4.476518118
20
276.307221283
11
3.669063578
21
276.132261199
0
ARC
5
132
100
AcDbEntity
8
0
6
ByLayer
62
256
370
-1
100
AcDbCircle
10
3.774946957
20
275.643601082
40
0.5
100
AcDbArc
50
102.225908854
51
191.316413857
0
ARC
5
133
100
AcDbEntity
8
0
6
ByLayer
62
256
370
-1
100
AcDbCircle
10
-27.112645304
20
269.462448736
40
31
100
AcDbArc
50
10.6769772702
51
11.3164138569
0
ARC
5
134
100
AcDbEntity
8
0
6
ByLayer
62
256
370
-1
100
AcDbCircle
10
2.859318024
20
275.113237554
40
0.5
100
AcDbArc
50
280.264058145
51
10.6769772702
0
LINE
5
135
100
AcDbEntity
8
0
6
ByLayer
62
256
370
-1
100
AcDbLine
10
-1.635316777
20
273.791204636
11
2.948410517
21
274.621239051
0
ARC
5
136
100
AcDbEntity
8
0
6
ByLayer
62
256
370
-1
100
AcDbCircle
10
-1.724409269
20
274.28320314
40
0.5
100
AcDbArc
50
133.610833323
51
280.264058145
0
LINE
5
137
100
AcDbEntity
8
0
6
ByLayer
62
256
370
-1
100
AcDbLine
10
-2.069287497
20
274.645223869
11
1.82516067
21
278.355261102
0
ARC
5
138
100
AcDbEntity
8
0
6
ByLayer
62
256
370
-1
100
AcDbCircle
10
2.170038897
20
277.993240373
40
0.5
100
AcDbArc
50
16.2421863977
51
133.610833323
0
ARC
5
139
100
AcDbEntity
8
0
6
ByLayer
62
256
370
-1
100
AcDbCircle
10
-27.112645304
20
269.462448736
40
31
100
AcDbArc
50
15.5864119266
51
16.2421863977
0
ARC
5
13A
100
AcDbEntity
8
0
6
ByLayer
62
256
370
-1
100
AcDbCircle
10
3.228983645
20
277.926227605
40
0.5
100
AcDbArc
50
195.586411927
51
284.676916914
0
ARC
5
13B
100
AcDbEntity
8
0
6
ByLayer
62
256
370
-1
100
AcDbCircle
10
-27.382313232
20
269.944294208
40
33
100
AcDbArc
50
14.6161867327
51
43.8465495489
0
LINE
5
13C
100
AcDbEntity
8
0
6
ByLayer
62
256
370
-1
100
AcDbLine
10
4.192603263
20
277.661748221
11
3.355667762
21
277.442542652
0
ARC
5
13D
100
AcDbEntity
8
0
6
ByLayer
62
256
370
-1
100
AcDbCircle
10
4.065919145
20
278.145433174
40
0.5
100
AcDbArc
50
284.676916915
51
14.6161867327
0
ARC
5
13E
100
AcDbEntity
8
0
6
ByLayer
62
256
370
-1
100
AcDbCircle
10
-27.112645304
20
269.462448736
40
31
100
AcDbArc
50
30.8997564213
51
43.8465495489
0
ARC
5
13F
100
AcDbEntity
8
0
6
ByLayer
62
256
370
-1
100
AcDbCircle
10
-0.941599092
20
285.125345664
40
0.5
100
AcDbArc
50
316.119395858
51
30.8997564213
0
LINE
5
140
100
AcDbEntity
8
0
6
ByLayer
62
256
370
-1
100
AcDbLine
10
-2.249191837
20
249.40709164
11
-7.762073498
21
254.686151728
0
ARC
5
141
100
AcDbEntity
8
0
6
ByLayer
62
256
370
-1
100
AcDbCircle
10
-8.107885533
20
254.325022892
40
0.5
100
AcDbArc
50
46.2411940197
51
102.239912927
0
LINE
5
142
100
AcDbEntity
8
0
6
ByLayer
62
256
370
-1
100
AcDbLine
10
-8.213888346
20
254.813657115
11
-13.956427817
21
253.567888183
0
ARC
5
143
100
AcDbEntity
8
0
6
ByLayer
62
256
370
-1
100
AcDbCircle
10
-14.06243063
20
254.056522405
40
0.5
100
AcDbArc
50
137.755472636
51
282.239912927
0
ARC
5
144
100
AcDbEntity
8
0
6
ByLayer
62
256
370
-1
100
AcDbCircle
10
-14.224044494
20
261.342204725
40
0.5
100
AcDbArc
50
137.079948436
51
278.1858506
0
LINE
5
145
100
AcDbEntity
8
0
6
ByLayer
62
256
370
-1
100
AcDbLine
10
-9.107694475
20
261.573045607
11
-14.152852244
21
260.847299013
0
LINE
5
146
100
AcDbEntity
8
0
6
ByLayer
62
256
370
-1
100
AcDbLine
10
-14.432571803
20
254.392670456
11
-8.666361052
21
260.741991845
0
ARC
5
147
100
AcDbEntity
8
0
6
ByLayer
62
256
370
-1
100
AcDbCircle
10
-9.036502224
20
261.078139896
40
0.5
100
AcDbArc
50
317.755472636
51
98.1858505998
0
LINE
5
148
100
AcDbEntity
8
0
6
ByLayer
62
256
370
-1
100
AcDbLine
10
-14.590196807
20
261.682693321
11
-6.997962011
21
269.847179177
0
ARC
5
149
100
AcDbEntity
8
0
6
ByLayer
62
256
370
-1
100
AcDbCircle
10
-7.364114323
20
270.187667773
40
0.5
100
AcDbArc
50
317.079948436
51
99.6064619984
0
LINE
5
14A
100
AcDbEntity
8
0
6
ByLayer
62
256
370
-1
100
AcDbLine
10
-7.447554298
20
270.680656384
11
-13.945327606
21
269.580886474
0
LINE
5
14B
100
AcDbEntity
8
0
6
ByLayer
62
256
370
-1
100
AcDbLine
10
-14.389160482
20
270.420454019
11
-0.581206191
21
284.778766731
0
ARC
5
14C
100
AcDbEntity
8
0
6
ByLayer
62
256
370
-1
100
AcDbCircle
10
-14.028767581
20
270.073875085
40
0.5
100
AcDbArc
50
136.119395858
51
279.606461998
0
ARC
5
14D
100
AcDbEntity
8
0
6
ByLayer
62
256
370
-1
100
AcDbCircle
10
-33.008556558
20
257.04251589
40
0.5
100
AcDbArc
50
270
51
10.2935297531
0
ARC
5
14E
100
AcDbEntity
8
0
6
ByLayer
62
256
370
-1
100
AcDbCircle
10
14.710846771
20
265.709034564
40
48
100
AcDbArc
50
189.059780667
51
190.293529753
0
ARC
5
14F
100
AcDbEntity
8
0
6
ByLayer
62
256
370
-1
100
AcDbCircle
10
-33.184095556
20
258.071986741
40
0.5
100
AcDbArc
50
9.0597806673
51
89.9356513238
0
ARC
5
150
100
AcDbEntity
8
0
6
ByLayer
62
256
370
-1
100
AcDbCircle
10
-33.76646392
20
264.22567749
40
0.5
100
AcDbArc
50
270
51
1.75264650951
0
ARC
5
151
100
AcDbEntity
8
0
6
ByLayer
62
256
370
-1
100
AcDbCircle
10
14.710846771
20
265.709034564
40
48
100
AcDbArc
50
180.572544249
51
181.75264651
0
ARC
5
152
100
AcDbEntity
8
0
6
ByLayer
62
256
370
-1
100
AcDbCircle
10
-33.786731748
20
265.22439269
40
0.5
100
AcDbArc
50
0.572544249322
51
90
0
ARC
5
153
100
AcDbEntity
8
0
6
ByLayer
62
256
370
-1
100
AcDbCircle
10
-33.789153229
20
269.41751589
40
0.5
100
AcDbArc
50
270
51
0
0
LINE
5
154
100
AcDbEntity
8
0
6
ByLayer
62
256
370
-1
100
AcDbLine
10
-33.289153229
20
270.64126949
11
-33.289153229
21
269.41751589
0
ARC
5
155
100
AcDbEntity
8
0
6
ByLayer
62
256
370
-1
100
AcDbCircle
10
-33.789153229
20
270.64126949
40
0.5
100
AcDbArc
50
0
51
90
0
ARC
5
156
100
AcDbEntity
8
0
6
ByLayer
62
256
370
-1
100
AcDbCircle
10
-33.789153229
20
278.64251649
40
0.5
100
AcDbArc
50
270
51
0
0
LINE
5
157
100
AcDbEntity
8
0
6
ByLayer
62
256
370
-1
100
AcDbLine
10
-33.289153229
20
279.66751649
11
-33.289153229
21
278.64251649
0
ARC
5
158
100
AcDbEntity
8
0
6
ByLayer
62
256
370
-1
100
AcDbCircle
10
-33.789153229
20
279.66751649
40
0.5
100
AcDbArc
50
0
51
90
0
ARC
5
159
100
AcDbEntity
8
0
6
ByLayer
62
256
370
-1
100
AcDbCircle
10
-33.789153229
20
284.04251709
40
0.5
100
AcDbArc
50
270
51
0
0
LINE
5
15A
100
AcDbEntity
8
0
6
ByLayer
62
256
370
-1
100
AcDbLine
10
-33.289153229
20
285.51845489
11
-33.289153229
21
284.04251709
0
ARC
5
15B
100
AcDbEntity
8
0
6
ByLayer
62
256
370
-1
100
AcDbCircle
10
-33.789153229
20
285.51845489
40
0.5
100
AcDbArc
50
0
51
90
0
ARC
5
15C
100
AcDbEntity
8
0
6
ByLayer
62
256
370
-1
100
AcDbCircle
10
-106.783888114
20
294.297203674
40
0.5
100
AcDbArc
50
90
51
236.673153635
0
ARC
5
15D
100
AcDbEntity
8
0
6
ByLayer
62
256
370
-1
100
AcDbCircle
10
-114.462863866
20
296.772218989
40
0.5
100
AcDbArc
50
90
51
236.058631913
0
LINE
5
15E
100
AcDbEntity
8
0
6
ByLayer
62
256
370
-1
100
AcDbLine
10
-114.742035986
20
296.357414303
11
-104.848746836
21
289.699026389
0
ARC
5
15F
100
AcDbEntity
8
0
6
ByLayer
62
256
370
-1
100
AcDbCircle
10
-104.569574716
20
290.113831075
40
0.5
100
AcDbArc
50
236.058631913
51
326.21984128
0
LINE
5
160
100
AcDbEntity
8
0
6
ByLayer
62
256
370
-1
100
AcDbLine
10
-104.153986185
20
289.835827167
11
-103.442918096
21
290.898804104
0
LINE
5
161
100
AcDbEntity
8
0
6
ByLayer
62
256
370
-1
100
AcDbLine
10
-107.058595305
20
293.879428664
11
-103.583799436
21
291.594583023
0
ARC
5
162
100
AcDbEntity
8
0
6
ByLayer
62
256
370
-1
100
AcDbCircle
10
-103.858506627
20
291.176808012
40
0.5
100
AcDbArc
50
326.21984128
51
56.6731536351
0
ARC
5
163
100
AcDbEntity
8
0
6
ByLayer
62
256
370
-1
100
AcDbCircle
10
-101.454523704
20
289.596073457
40
0.5
100
AcDbArc
50
56.6731536306
51
146.219841281
0
LINE
5
164
100
AcDbEntity
8
0
6
ByLayer
62
256
370
-1
100
AcDbLine
10
-102.597556476
20
288.786619688
11
-101.870112235
21
289.874077364
0
ARC
5
165
100
AcDbEntity
8
0
6
ByLayer
62
256
370
-1
100
AcDbCircle
10
-102.181967945
20
288.50861578
40
0.5
100
AcDbArc
50
146.219841281
51
236.219841278
0
LINE
5
166
100
AcDbEntity
8
0
6
ByLayer
62
256
370
-1
100
AcDbLine
10
-102.459971853
20
288.093027249
11
-95.7835930632
21
283.626928559
0
LINE
5
167
100
AcDbEntity
8
0
6
ByLayer
62
256
370
-1
100
AcDbLine
10
-33.789153229
20
283.54251709
11
-95.5055891553
21
283.54251709
0
ARC
5
168
100
AcDbEntity
8
0
6
ByLayer
62
256
370
-1
100
AcDbCircle
10
-95.5055891553
20
284.04251709
40
0.5
100
AcDbArc
50
236.219841278
51
270
0
LINE
5
169
100
AcDbEntity
8
0
6
ByLayer
62
256
370
-1
100
AcDbLine
10
-101.179816513
20
290.013848467
11
-95.2286652424
21
286.10067988
0
LINE
5
16A
100
AcDbEntity
8
0
6
ByLayer
62
256
370
-1
100
AcDbLine
10
-33.789153229
20
286.01845489
11
-94.9539580517
21
286.01845489
0
ARC
5
16B
100
AcDbEntity
8
0
6
ByLayer
62
256
370
-1
100
AcDbCircle
10
-94.9539580517
20
286.51845489
40
0.5
100
AcDbArc
50
236.673153631
51
270
0
LINE
5
16C
100
AcDbEntity
8
0
6
ByLayer
62
256
370
-1
100
AcDbLine
10
-33.789153229
20
280.16751649
11
-88.9730134211
21
280.16751649
0
ARC
5
16D
100
AcDbEntity
8
0
6
ByLayer
62
256
370
-1
100
AcDbCircle
10
-88.9730134211
20
279.66751649
40
0.5
100
AcDbArc
50
90
51
236.071793001
0
LINE
5
16E
100
AcDbEntity
8
0
6
ByLayer
62
256
370
-1
100
AcDbLine
10
-33.789153229
20
278.14251649
11
-81.4554207639
21
278.14251649
0
ARC
5
16F
100
AcDbEntity
8
0
6
ByLayer
62
256
370
-1
100
AcDbCircle
10
-81.4554207639
20
277.64251649
40
0.5
100
AcDbArc
50
90
51
236.673153633
0
LINE
5
170
100
AcDbEntity
8
0
6
ByLayer
62
256
370
-1
100
AcDbLine
10
-81.7301279546
20
277.22474148
11
-78.7562573147
21
275.269278303
0
ARC
5
171
100
AcDbEntity
8
0
6
ByLayer
62
256
370
-1
100
AcDbCircle
10
-79.0309645055
20
274.851503292
40
0.5
100
AcDbArc
50
326.219841294
51
56.6731536332
0
LINE
5
172
100
AcDbEntity
8
0
6
ByLayer
62
256
370
-1
100
AcDbLine
10
-89.2520902514
20
279.252647688
11
-80.1736153999
21
273.145676102
0
LINE
5
173
100
AcDbEntity
8
0
6
ByLayer
62
256
370
-1
100
AcDbLine
10
-79.4789500384
20
273.282540996
11
-78.6153759743
21
274.573499384
0
ARC
5
174
100
AcDbEntity
8
0
6
ByLayer
62
256
370
-1
100
AcDbCircle
10
-79.8945385696
20
273.560544903
40
0.5
100
AcDbArc
50
236.071793001
51
326.219841294
0
ARC
5
175
100
AcDbEntity
8
0
6
ByLayer
62
256
370
-1
100
AcDbCircle
10
-77.507352887
20
271.954716241
40
0.5
100
AcDbArc
50
146.21984129
51
236.071793005
0
LINE
5
176
100
AcDbEntity
8
0
6
ByLayer
62
256
370
-1
100
AcDbLine
10
-77.922941418
20
272.232720148
11
-77.051242645
21
273.53582418
0
ARC
5
177
100
AcDbEntity
8
0
6
ByLayer
62
256
370
-1
100
AcDbCircle
10
-76.635654113
20
273.257820272
40
0.5
100
AcDbArc
50
56.2971511846
51
146.21984129
0
LINE
5
178
100
AcDbEntity
8
0
6
ByLayer
62
256
370
-1
100
AcDbLine
10
-77.786429717
20
271.539847439
11
-74.014689624
21
269.002647088
0
LINE
5
179
100
AcDbEntity
8
0
6
ByLayer
62
256
370
-1
100
AcDbLine
10
-33.789153229
20
268.91751589
11
-73.735612794
21
268.91751589
0
ARC
5
17A
100
AcDbEntity
8
0
6
ByLayer
62
256
370
-1
100
AcDbCircle
10
-73.735612794
20
269.41751589
40
0.5
100
AcDbArc
50
236.071793005
51
270
0
LINE
5
17B
100
AcDbEntity
8
0
6
ByLayer
62
256
370
-1
100
AcDbLine
10
-76.358211217
20
273.673783538
11
-72.687269786
21
271.225306223
0
LINE
5
17C
100
AcDbEntity
8
0
6
ByLayer
62
256
370
-1
100
AcDbLine
10
-33.789153229
20
271.14126949
11
-72.40982689
21
271.14126949
0
ARC
5
17D
100
AcDbEntity
8
0
6
ByLayer
62
256
370
-1
100
AcDbCircle
10
-72.40982689
20
271.64126949
40
0.5
100
AcDbArc
50
236.297151185
51
270
0
LINE
5
17E
100
AcDbEntity
8
0
6
ByLayer
62
256
370
-1
100
AcDbLine
10
-33.786731748
20
265.72439269
11
-67.290408361
21
265.72439269
0
ARC
5
17F
100
AcDbEntity
8
0
6
ByLayer
62
256
370
-1
100
AcDbCircle
10
-67.290408361
20
265.22439269
40
0.5
100
AcDbArc
50
90
51
236.248963221
0
LINE
5
180
100
AcDbEntity
8
0
6
ByLayer
62
256
370
-1
100
AcDbLine
10
-33.76646392
20
263.72567749
11
-59.530275495
21
263.72567749
0
ARC
5
181
100
AcDbEntity
8
0
6
ByLayer
62
256
370
-1
100
AcDbCircle
10
-59.530275495
20
263.22567749
40
0.5
100
AcDbArc
50
90
51
236.673153642
0
LINE
5
182
100
AcDbEntity
8
0
6
ByLayer
62
256
370
-1
100
AcDbLine
10
-59.804982686
20
262.80790248
11
-58.504869642
21
261.953015536
0
ARC
5
183
100
AcDbEntity
8
0
6
ByLayer
62
256
370
-1
100
AcDbCircle
10
-58.779576833
20
261.535240525
40
0.5
100
AcDbArc
50
326.219841281
51
56.6731536422
0
LINE
5
184
100
AcDbEntity
8
0
6
ByLayer
62
256
370
-1
100
AcDbLine
10
-59.287579605
20
259.876558352
11
-58.363988301
21
261.257236617
0
LINE
5
185
100
AcDbEntity
8
0
6
ByLayer
62
256
370
-1
100
AcDbLine
10
-59.980960776
20
259.73883248
11
-67.568201
21
264.80866291
0
ARC
5
186
100
AcDbEntity
8
0
6
ByLayer
62
256
370
-1
100
AcDbCircle
10
-59.703168136
20
260.15456226
40
0.5
100
AcDbArc
50
236.248963221
51
326.219841281
0
ARC
5
187
100
AcDbEntity
8
0
6
ByLayer
62
256
370
-1
100
AcDbCircle
10
-56.37645344
20
259.955071152
40
0.5
100
AcDbArc
50
56.6731536367
51
146.219841254
0
LINE
5
188
100
AcDbEntity
8
0
6
ByLayer
62
256
370
-1
100
AcDbLine
10
-57.727472379
20
258.834698499
11
-56.792041971
21
260.23307506
0
ARC
5
189
100
AcDbEntity
8
0
6
ByLayer
62
256
370
-1
100
AcDbCircle
10
-57.311883848
20
258.55669459
40
0.5
100
AcDbArc
50
146.219841254
51
236.248963218
0
LINE
5
18A
100
AcDbEntity
8
0
6
ByLayer
62
256
370
-1
100
AcDbLine
10
-57.589676487
20
258.140964811
11
-55.323636685
21
256.626786111
0
LINE
5
18B
100
AcDbEntity
8
0
6
ByLayer
62
256
370
-1
100
AcDbLine
10
-55.045844046
20
256.54251589
11
-33.008556558
21
256.54251589
0
ARC
5
18C
100
AcDbEntity
8
0
6
ByLayer
62
256
370
-1
100
AcDbCircle
10
-55.045844046
20
257.04251589
40
0.5
100
AcDbArc
50
236.248963218
51
270
0
LINE
5
18D
100
AcDbEntity
8
0
6
ByLayer
62
256
370
-1
100
AcDbLine
10
-56.101746249
20
260.372846162
11
-53.52231461
21
258.676745626
0
LINE
5
18E
100
AcDbEntity
8
0
6
ByLayer
62
256
370
-1
100
AcDbLine
10
-33.183534008
20
258.571986426
11
-53.248168967
21
258.594520952
0
ARC
5
18F
100
AcDbEntity
8
0
6
ByLayer
62
256
370
-1
100
AcDbCircle
10
-53.247607419
20
259.094520636
40
0.5
100
AcDbArc
50
236.673153637
51
269.935651324
0
LINE
5
190
100
AcDbEntity
8
0
6
ByLayer
62
256
370
-1
100
AcDbLine
10
116.175770469
20
297.272218989
11
116.237437904
21
297.272168109
0
ARC
5
191
100
AcDbEntity
8
0
6
ByLayer
62
256
370
-1
100
AcDbCircle
10
33.144782048
20
257.04251589
40
0.5
100
AcDbArc
50
169.706470247
51
270
0
ARC
5
192
100
AcDbEntity
8
0
6
ByLayer
62
256
370
-1
100
AcDbCircle
10
-14.574621281
20
265.709034564
40
48
100
AcDbArc
50
349.706470247
51
350.940219333
0
ARC
5
193
100
AcDbEntity
8
0
6
ByLayer
62
256
370
-1
100
AcDbCircle
10
33.320321046
20
258.071986741
40
0.5
100
AcDbArc
50
90.0643486762
51
170.940219333
0
ARC
5
194
100
AcDbEntity
8
0
6
ByLayer
62
256
370
-1
100
AcDbCircle
10
33.902689409
20
264.22567749
40
0.5
100
AcDbArc
50
178.24735349
51
270
0
ARC
5
195
100
AcDbEntity
8
0
6
ByLayer
62
256
370
-1
100
AcDbCircle
10
-14.574621281
20
265.709034564
40
48
100
AcDbArc
50
358.24735349
51
359.427455751
0
ARC
5
196
100
AcDbEntity
8
0
6
ByLayer
62
256
370
-1
100
AcDbCircle
10
33.922957238
20
265.22439269
40
0.5
100
AcDbArc
50
90
51
179.427455751
0
ARC
5
197
100
AcDbEntity
8
0
6
ByLayer
62
256
370
-1
100
AcDbCircle
10
33.925378719
20
269.41751589
40
0.5
100
AcDbArc
50
180
51
270
0
LINE
5
198
100
AcDbEntity
8
0
6
ByLayer
62
256
370
-1
100
AcDbLine
10
33.425378719
20
270.64126949
11
33.425378719
21
269.41751589
0
ARC
5
199
100
AcDbEntity
8
0
6
ByLayer
62
256
370
-1
100
AcDbCircle
10
33.925378719
20
270.64126949
40
0.5
100
AcDbArc
50
90
51
180
0
ARC
5
19A
100
AcDbEntity
8
0
6
ByLayer
62
256
370
-1
100
AcDbCircle
10
33.925378719
20
278.64251649
40
0.5
100
AcDbArc
50
180
51
270
0
LINE
5
19B
100
AcDbEntity
8
0
6
ByLayer
62
256
370
-1
100
AcDbLine
10
33.425378719
20
279.66751649
11
33.425378719
21
278.64251649
0
ARC
5
19C
100
AcDbEntity
8
0
6
ByLayer
62
256
370
-1
100
AcDbCircle
10
33.925378719
20
279.66751649
40
0.5
100
AcDbArc
50
90
51
180
0
ARC
5
19D
100
AcDbEntity
8
0
6
ByLayer
62
256
370
-1
100
AcDbCircle
10
33.925378719
20
284.04251709
40
0.5
100
AcDbArc
50
180
51
270
0
LINE
5
19E
100
AcDbEntity
8
0
6
ByLayer
62
256
370
-1
100
AcDbLine
10
33.425378719
20
285.51845489
11
33.425378719
21
284.04251709
0
ARC
5
19F
100
AcDbEntity
8
0
6
ByLayer
62
256
370
-1
100
AcDbCircle
10
33.925378719
20
285.51845489
40
0.5
100
AcDbArc
50
90
51
180
0
ARC
5
1A0
100
AcDbEntity
8
0
6
ByLayer
62
256
370
-1
100
AcDbCircle
10
106.920113604
20
294.297203674
40
0.5
100
AcDbArc
50
303.326846365
51
90
0
ARC
5
1A1
100
AcDbEntity
8
0
6
ByLayer
62
256
370
-1
100
AcDbCircle
10
114.599089355
20
296.772218989
40
0.5
100
AcDbArc
50
303.941368087
51
90
0
LINE
5
1A2
100
AcDbEntity
8
0
6
ByLayer
62
256
370
-1
100
AcDbLine
10
114.878261476
20
296.357414303
11
104.984972325
21
289.699026389
0
ARC
5
1A3
100
AcDbEntity
8
0
6
ByLayer
62
256
370
-1
100
AcDbCircle
10
104.705800205
20
290.113831075
40
0.5
100
AcDbArc
50
213.78015872
51
303.941368087
0
LINE
5
1A4
100
AcDbEntity
8
0
6
ByLayer
62
256
370
-1
100
AcDbLine
10
104.290211674
20
289.835827167
11
103.579143586
21
290.898804104
0
LINE
5
1A5
100
AcDbEntity
8
0
6
ByLayer
62
256
370
-1
100
AcDbLine
10
107.194820795
20
293.879428664
11
103.720024926
21
291.594583023
0
ARC
5
1A6
100
AcDbEntity
8
0
6
ByLayer
62
256
370
-1
100
AcDbCircle
10
103.994732117
20
291.176808012
40
0.5
100
AcDbArc
50
123.326846365
51
213.78015872
0
ARC
5
1A7
100
AcDbEntity
8
0
6
ByLayer
62
256
370
-1
100
AcDbCircle
10
101.590749193
20
289.596073457
40
0.5
100
AcDbArc
50
33.7801587192
51
123.326846369
0
LINE
5
1A8
100
AcDbEntity
8
0
6
ByLayer
62
256
370
-1
100
AcDbLine
10
102.733781966
20
288.786619688
11
102.006337724
21
289.874077364
0
ARC
5
1A9
100
AcDbEntity
8
0
6
ByLayer
62
256
370
-1
100
AcDbCircle
10
102.318193435
20
288.50861578
40
0.5
100
AcDbArc
50
303.780158722
51
33.7801587192
0
LINE
5
1AA
100
AcDbEntity
8
0
6
ByLayer
62
256
370
-1
100
AcDbLine
10
102.596197343
20
288.093027249
11
95.919818553
21
283.626928559
0
LINE
5
1AB
100
AcDbEntity
8
0
6
ByLayer
62
256
370
-1
100
AcDbLine
10
33.925378719
20
283.54251709
11
95.641814645
21
283.54251709
0
ARC
5
1AC
100
AcDbEntity
8
0
6
ByLayer
62
256
370
-1
100
AcDbCircle
10
95.641814645
20
284.04251709
40
0.5
100
AcDbArc
50
270
51
303.780158722
0
LINE
5
1AD
100
AcDbEntity
8
0
6
ByLayer
62
256
370
-1
100
AcDbLine
10
101.316042003
20
290.013848467
11
95.364890732
21
286.10067988
0
LINE
5
1AE
100
AcDbEntity
8
0
6
ByLayer
62
256
370
-1
100
AcDbLine
10
33.925378719
20
286.01845489
11
95.090183541
21
286.01845489
0
ARC
5
1AF
100
AcDbEntity
8
0
6
ByLayer
62
256
370
-1
100
AcDbCircle
10
95.090183541
20
286.51845489
40
0.5
100
AcDbArc
50
270
51
303.326846369
0
LINE
5
1B0
100
AcDbEntity
8
0
6
ByLayer
62
256
370
-1
100
AcDbLine
10
33.925378719
20
280.16751649
11
89.109238911
21
280.16751649
0
ARC
5
1B1
100
AcDbEntity
8
0
6
ByLayer
62
256
370
-1
100
AcDbCircle
10
89.109238911
20
279.66751649
40
0.5
100
AcDbArc
50
303.928206999
51
90
0
LINE
5
1B2
100
AcDbEntity
8
0
6
ByLayer
62
256
370
-1
100
AcDbLine
10
33.925378719
20
278.14251649
11
81.591646254
21
278.14251649
0
ARC
5
1B3
100
AcDbEntity
8
0
6
ByLayer
62
256
370
-1
100
AcDbCircle
10
81.591646254
20
277.64251649
40
0.5
100
AcDbArc
50
303.326846367
51
90
0
LINE
5
1B4
100
AcDbEntity
8
0
6
ByLayer
62
256
370
-1
100
AcDbLine
10
81.866353444
20
277.22474148
11
78.892482804
21
275.269278303
0
ARC
5
1B5
100
AcDbEntity
8
0
6
ByLayer
62
256
370
-1
100
AcDbCircle
10
79.167189995
20
274.851503292
40
0.5
100
AcDbArc
50
123.326846367
51
213.780158706
0
LINE
5
1B6
100
AcDbEntity
8
0
6
ByLayer
62
256
370
-1
100
AcDbLine
10
89.388315741
20
279.252647688
11
80.30984089
21
273.145676102
0
LINE
5
1B7
100
AcDbEntity
8
0
6
ByLayer
62
256
370
-1
100
AcDbLine
10
79.615175528
20
273.282540996
11
78.751601464
21
274.573499384
0
ARC
5
1B8
100
AcDbEntity
8
0
6
ByLayer
62
256
370
-1
100
AcDbCircle
10
80.030764059
20
273.560544903
40
0.5
100
AcDbArc
50
213.780158706
51
303.928206999
0
ARC
5
1B9
100
AcDbEntity
8
0
6
ByLayer
62
256
370
-1
100
AcDbCircle
10
77.643578377
20
271.954716241
40
0.5
100
AcDbArc
50
303.928206995
51
33.7801587099
0
LINE
5
1BA
100
AcDbEntity
8
0
6
ByLayer
62
256
370
-1
100
AcDbLine
10
78.059166908
20
272.232720148
11
77.187468134
21
273.53582418
0
ARC
5
1BB
100
AcDbEntity
8
0
6
ByLayer
62
256
370
-1
100
AcDbCircle
10
76.771879603
20
273.257820272
40
0.5
100
AcDbArc
50
33.7801587099
51
123.702848815
0
LINE
5
1BC
100
AcDbEntity
8
0
6
ByLayer
62
256
370
-1
100
AcDbLine
10
77.922655207
20
271.539847439
11
74.150915114
21
269.002647088
0
LINE
5
1BD
100
AcDbEntity
8
0
6
ByLayer
62
256
370
-1
100
AcDbLine
10
33.925378719
20
268.91751589
11
73.871838284
21
268.91751589
0
ARC
5
1BE
100
AcDbEntity
8
0
6
ByLayer
62
256
370
-1
100
AcDbCircle
10
73.871838284
20
269.41751589
40
0.5
100
AcDbArc
50
270
51
303.928206995
0
LINE
5
1BF
100
AcDbEntity
8
0
6
ByLayer
62
256
370
-1
100
AcDbLine
10
76.494436707
20
273.673783538
11
72.823495276
21
271.225306223
0
LINE
5
1C0
100
AcDbEntity
8
0
6
ByLayer
62
256
370
-1
100
AcDbLine
10
33.925378719
20
271.14126949
11
72.546052379
21
271.14126949
0
ARC
5
1C1
100
AcDbEntity
8
0
6
ByLayer
62
256
370
-1
100
AcDbCircle
10
72.546052379
20
271.64126949
40
0.5
100
AcDbArc
50
270
51
303.702848815
0
LINE
5
1C2
100
AcDbEntity
8
0
6
ByLayer
62
256
370
-1
100
AcDbLine
10
33.922957238
20
265.72439269
11
67.426633851
21
265.72439269
0
ARC
5
1C3
100
AcDbEntity
8
0
6
ByLayer
62
256
370
-1
100
AcDbCircle
10
67.426633851
20
265.22439269
40
0.5
100
AcDbArc
50
303.751036779
51
90
0
LINE
5
1C4
100
AcDbEntity
8
0
6
ByLayer
62
256
370
-1
100
AcDbLine
10
33.902689409
20
263.72567749
11
59.666500985
21
263.72567749
0
ARC
5
1C5
100
AcDbEntity
8
0
6
ByLayer
62
256
370
-1
100
AcDbCircle
10
59.666500985
20
263.22567749
40
0.5
100
AcDbArc
50
303.326846358
51
90
0
LINE
5
1C6
100
AcDbEntity
8
0
6
ByLayer
62
256
370
-1
100
AcDbLine
10
59.941208176
20
262.80790248
11
58.641095132
21
261.953015536
0
ARC
5
1C7
100
AcDbEntity
8
0
6
ByLayer
62
256
370
-1
100
AcDbCircle
10
58.915802322
20
261.535240525
40
0.5
100
AcDbArc
50
123.326846358
51
213.780158719
0
LINE
5
1C8
100
AcDbEntity
8
0
6
ByLayer
62
256
370
-1
100
AcDbLine
10
59.423805095
20
259.876558352
11
58.500213791
21
261.257236617
0
LINE
5
1C9
100
AcDbEntity
8
0
6
ByLayer
62
256
370
-1
100
AcDbLine
10
60.117186265
20
259.73883248
11
67.70442649
21
264.80866291
0
ARC
5
1CA
100
AcDbEntity
8
0
6
ByLayer
62
256
370
-1
100
AcDbCircle
10
59.839393626
20
260.15456226
40
0.5
100
AcDbArc
50
213.780158719
51
303.751036779
0
ARC
5
1CB
100
AcDbEntity
8
0
6
ByLayer
62
256
370
-1
100
AcDbCircle
10
56.51267893
20
259.955071152
40
0.5
100
AcDbArc
50
33.7801587465
51
123.326846363
0
LINE
5
1CC
100
AcDbEntity
8
0
6
ByLayer
62
256
370
-1
100
AcDbLine
10
57.863697868
20
258.834698499
11
56.928267461
21
260.23307506
0
ARC
5
1CD
100
AcDbEntity
8
0
6
ByLayer
62
256
370
-1
100
AcDbCircle
10
57.448109338
20
258.55669459
40
0.5
100
AcDbArc
50
303.751036782
51
33.7801587465
0
LINE
5
1CE
100
AcDbEntity
8
0
6
ByLayer
62
256
370
-1
100
AcDbLine
10
57.725901977
20
258.140964811
11
55.459862175
21
256.626786111
0
LINE
5
1CF
100
AcDbEntity
8
0
6
ByLayer
62
256
370
-1
100
AcDbLine
10
55.182069536
20
256.54251589
11
33.144782048
21
256.54251589
0
ARC
5
1D0
100
AcDbEntity
8
0
6
ByLayer
62
256
370
-1
100
AcDbCircle
10
55.182069536
20
257.04251589
40
0.5
100
AcDbArc
50
270
51
303.751036782
0
LINE
5
1D1
100
AcDbEntity
8
0
6
ByLayer
62
256
370
-1
100
AcDbLine
10
56.237971739
20
260.372846162
11
53.6585401
21
258.676745626
0
LINE
5
1D2
100
AcDbEntity
8
0
6
ByLayer
62
256
370
-1
100
AcDbLine
10
33.319759498
20
258.571986426
11
53.384394457
21
258.594520952
0
ARC
5
1D3
100
AcDbEntity
8
0
6
ByLayer
62
256
370
-1
100
AcDbCircle
10
53.383832909
20
259.094520636
40
0.5
100
AcDbArc
50
270.064348676
51
303.326846363
0
LINE
5
1D4
100
AcDbEntity
8
0
6
ByLayer
62
256
370
-1
100
AcDbLine
10
-33.789153229
20
294.797203674
11
-106.783888114
21
294.797203674
0
ARC
5
1D5
100
AcDbEntity
8
0
6
ByLayer
62
256
370
-1
100
AcDbCircle
10
-33.789153229
20
295.297203674
40
0.5
100
AcDbArc
50
270
51
0
0
LINE
5
1D6
100
AcDbEntity
8
0
6
ByLayer
62
256
370
-1
100
AcDbLine
10
-114.462863866
20
297.272218989
11
-33.789153229
21
297.272218989
0
LINE
5
1D7
100
AcDbEntity
8
0
6
ByLayer
62
256
370
-1
100
AcDbLine
10
-33.289153229
20
296.772218989
11
-33.289153229
21
295.297203674
0
ARC
5
1D8
100
AcDbEntity
8
0
6
ByLayer
62
256
370
-1
100
AcDbCircle
10
-33.789153229
20
296.772218989
40
0.5
100
AcDbArc
50
0
51
90
0
LINE
5
1D9
100
AcDbEntity
8
0
6
ByLayer
62
256
370
-1
100
AcDbLine
10
33.925378719
20
294.797203674
11
106.920113604
21
294.797203674
0
ARC
5
1DA
100
AcDbEntity
8
0
6
ByLayer
62
256
370
-1
100
AcDbCircle
10
33.925378719
20
295.297203674
40
0.5
100
AcDbArc
50
180
51
270
0
LINE
5
1DB
100
AcDbEntity
8
0
6
ByLayer
62
256
370
-1
100
AcDbLine
10
114.599089355
20
297.272218989
11
33.925378719
21
297.272218989
0
LINE
5
1DC
100
AcDbEntity
8
0
6
ByLayer
62
256
370
-1
100
AcDbLine
10
33.425378719
20
296.772218989
11
33.425378719
21
295.297203674
0
ARC
5
1DD
100
AcDbEntity
8
0
6
ByLayer
62
256
370
-1
100
AcDbCircle
10
33.925378719
20
296.772218989
40
0.5
100
AcDbArc
50
90
51
180
0
ENDBLK
5
4B
330
49
100
AcDbEntity
8
0
100
AcDbBlockEnd
0
ENDSEC
0
SECTION
2
ENTITIES
0
ARC
5
1DE
100
AcDbEntity
8
0
6
ByLayer
62
256
370
-1
100
AcDbCircle
10
5
20
5
40
5
100
AcDbArc
50
180
51
270
0
LINE
5
1DF
100
AcDbEntity
8
0
6
ByLayer
62
256
370
-1
100
AcDbLine
10
5
20
0
11
345
21
0
0
ARC
5
1E0
100
AcDbEntity
8
0
6
ByLayer
62
256
370
-1
100
AcDbCircle
10
345
20
5
40
5
100
AcDbArc
50
270
51
1.01752901723e-014
0
LINE
5
1E1
100
AcDbEntity
8
0
6
ByLayer
62
256
370
-1
100
AcDbLine
10
0
20
21
11
1
21
20
0
LINE
5
1E2
100
AcDbEntity
8
0
6
ByLayer
62
256
370
-1
100
AcDbLine
10
1
20
20
11
0
21
19
0
LINE
5
1E3
100
AcDbEntity
8
0
6
ByLayer
62
256
370
-1
100
AcDbLine
10
350
20
21
11
349
21
20
0
LINE
5
1E4
100
AcDbEntity
8
0
6
ByLayer
62
256
370
-1
100
AcDbLine
10
349
20
20
11
350
21
19
0
LINE
5
1E5
100
AcDbEntity
8
0
6
ByLayer
62
256
370
-1
100
AcDbLine
10
0
20
171
11
1
21
170
0
LINE
5
1E6
100
AcDbEntity
8
0
6
ByLayer
62
256
370
-1
100
AcDbLine
10
1
20
170
11
0
21
169
0
LINE
5
1E7
100
AcDbEntity
8
0
6
ByLayer
62
256
370
-1
100
AcDbLine
10
350
20
171
11
349
21
170
0
LINE
5
1E8
100
AcDbEntity
8
0
6
ByLayer
62
256
370
-1
100
AcDbLine
10
349
20
170
11
350
21
169
0
LINE
5
1E9
100
AcDbEntity
8
0
6
ByLayer
62
256
370
-1
100
AcDbLine
10
0
20
5
11
0
21
19
0
LINE
5
1EA
100
AcDbEntity
8
0
6
ByLayer
62
256
370
-1
100
AcDbLine
10
0
20
21
11
4.16333634234e-016
21
169
0
LINE
5
1EB
100
AcDbEntity
8
0
6
ByLayer
62
256
370
-1
100
AcDbLine
10
350
20
169
11
350
21
21
0
LINE
5
1EC
100
AcDbEntity
8
0
6
ByLayer
62
256
370
-1
100
AcDbLine
10
350
20
19
11
350
21
5
0
LINE
5
1ED
100
AcDbEntity
8
0
6
CONTINUOUS
62
256
370
-1
100
AcDbLine
10
10
20
20
11
340
21
20
0
LINE
5
1EE
100
AcDbEntity
8
0
6
CONTINUOUS
62
256
370
-1
100
AcDbLine
10
10
20
170
11
340
21
170
0
LINE
5
1EF
100
AcDbEntity
8
0
6
ByLayer
62
256
370
-1
100
AcDbLine
10
-0
20
515
11
0
21
171
0
LINE
5
1F0
100
AcDbEntity
8
0
6
ByLayer
62
256
370
-1
100
AcDbLine
10
350
20
171
11
350
21
515
0
CIRCLE
5
1F1
100
AcDbEntity
8
0
6
ByLayer
62
256
370
-1
100
AcDbCircle
10
170
20
550
40
2.5
0
CIRCLE
5
1F2
100
AcDbEntity
8
0
6
ByLayer
62
256
370
-1
100
AcDbCircle
10
170
20
530
40
2.5
0
CIRCLE
5
1F3
100
AcDbEntity
8
0
6
ByLayer
62
256
370
-1
100
AcDbCircle
10
250
20
550
40
2.5
0
CIRCLE
5
1F4
100
AcDbEntity
8
0
6
ByLayer
62
256
370
-1
100
AcDbCircle
10
250
20
530
40
2.5
0
CIRCLE
5
1F5
100
AcDbEntity
8
0
6
ByLayer
62
256
370
-1
100
AcDbCircle
10
330
20
550
40
2.5
0
CIRCLE
5
1F6
100
AcDbEntity
8
0
6
ByLayer
62
256
370
-1
100
AcDbCircle
10
330
20
530
40
2.5
0
LINE
5
1F7
100
AcDbEntity
8
0
6
ByLayer
62
256
370
-1
100
AcDbLine
10
345
20
570
11
5
21
570
0
CIRCLE
5
1F8
100
AcDbEntity
8
0
6
ByLayer
62
256
370
-1
100
AcDbCircle
10
80
20
525
40
4.5
0
ARC
5
1F9
100
AcDbEntity
8
0
6
ByLayer
62
256
370
-1
100
AcDbCircle
10
5
20
565
40
5
100
AcDbArc
50
90
51
180
0
ARC
5
1FA
100
AcDbEntity
8
0
6
ByLayer
62
256
370
-1
100
AcDbCircle
10
345
20
565
40
5
100
AcDbArc
50
0
51
90
0
LINE
5
1FB
100
AcDbEntity
8
0
6
ByLayer
62
256
370
-1
100
AcDbLine
10
0
20
565
11
0
21
515
0
LINE
5
1FC
100
AcDbEntity
8
0
6
ByLayer
62
256
370
-1
100
AcDbLine
10
350
20
565
11
350
21
515
0
ARC
5
1FD
100
AcDbEntity
8
0
6
ByLayer
62
256
370
-1
100
AcDbCircle
10
0
20
0
40
0
100
AcDbArc
50
0
51
0
0
ARC
5
1FE
100
AcDbEntity
8
0
6
ByLayer
62
256
370
-1
100
AcDbCircle
10
0
20
0
40
0
100
AcDbArc
50
0
51
0
0
INSERT
5
1FF
100
AcDbEntity
8
0
6
ByLayer
62
256
370
-1
100
AcDbBlockReference
2
Zeundapp-Schrift-1
10
50.6183095703
20
361.828523315
30
0
41
1
42
1
43
0
50
0
70
1
71
1
44
0
45
0
0
INSERT
5
200
100
AcDbEntity
8
0
6
ByLayer
62
256
370
-1
100
AcDbBlockReference
2
Zuendapp-Wappen
10
178.569153229
20
0
30
0
41
1
42
1
43
0
50
0
70
1
71
1
44
0
45
0
0
ENDSEC
0
SECTION
2
OBJECTS
0
DICTIONARY
5
C
330
0
100
AcDbDictionary
281
1
3
ACAD_GROUP
350
D
0
DICTIONARY
5
D
330
C
100
AcDbDictionary
281
1
0
ENDSEC
0
EOF
